<?xml version="1.0" encoding="UTF-8"?> <svg xmlns="http://www.w3.org/2000/svg" width="227" height="223" viewBox="0 0 227 223" fill="none"> <g clip-path="url(#clip0_301_2107)"> <path d="M226 114.909H116.909V224H226V114.909Z" fill="#AED7FD"></path> <path d="M226 -1H116.909V108.091H226V-1Z" fill="#79BCFA"></path> <path d="M110.091 -1H1V108.091H110.091V-1Z" fill="#5DAFFA"></path> <path d="M12.192 161.047H7.55363V143.032H1.61328V139.171H18.1324V143.032H12.192V161.047ZM30.4467 144.004C32.3321 144.004 33.8533 144.738 35.0104 146.204C36.1776 147.671 36.7611 149.821 36.7611 152.653C36.7611 154.548 36.4868 156.144 35.9381 157.441C35.3895 158.728 34.6314 159.701 33.6638 160.359C32.6962 161.017 31.584 161.347 30.327 161.347C29.5191 161.347 28.8258 161.247 28.2472 161.047C27.6686 160.837 27.1749 160.574 26.766 160.254C26.3569 159.925 26.0028 159.576 25.7036 159.206H25.4641C25.544 159.606 25.6038 160.014 25.6436 160.434C25.6836 160.853 25.7036 161.262 25.7036 161.66V168.409H21.1399V144.319H24.8507L25.4941 146.489H25.7036C26.0028 146.04 26.3669 145.626 26.7958 145.246C27.2248 144.867 27.7385 144.569 28.337 144.348C28.9455 144.12 29.6488 144.004 30.4467 144.004ZM28.9804 147.656C28.1824 147.656 27.549 147.82 27.0801 148.149C26.6113 148.479 26.2671 148.972 26.0477 149.63C25.8382 150.289 25.7235 151.122 25.7036 152.129V152.623C25.7036 153.7 25.8033 154.613 26.0028 155.362C26.2123 156.11 26.5565 156.678 27.0353 157.067C27.5241 157.457 28.1923 157.65 29.0403 157.65C29.7385 157.65 30.3121 157.457 30.761 157.067C31.2099 156.678 31.544 156.11 31.7635 155.362C31.9929 154.603 32.1077 153.68 32.1077 152.593C32.1077 150.957 31.8533 149.725 31.3445 148.897C30.8358 148.069 30.0478 147.656 28.9804 147.656ZM47.4296 144.004C48.9758 144.004 50.3075 144.304 51.4247 144.902C52.542 145.491 53.4048 146.349 54.0133 147.476C54.6218 148.603 54.926 149.98 54.926 151.605V153.82H44.1378C44.1877 155.107 44.5717 156.119 45.29 156.857C46.0181 157.586 47.0256 157.95 48.3124 157.95C49.3799 157.95 50.3574 157.84 51.2451 157.621C52.133 157.402 53.0457 157.072 53.9834 156.633V160.165C53.1554 160.574 52.2876 160.872 51.3798 161.062C50.4821 161.251 49.3898 161.347 48.1029 161.347C46.4271 161.347 44.9408 161.037 43.644 160.419C42.3572 159.8 41.3448 158.858 40.6066 157.591C39.8783 156.323 39.5142 154.727 39.5142 152.803C39.5142 150.848 39.8435 149.221 40.5018 147.925C41.1701 146.618 42.0979 145.64 43.2849 144.992C44.4719 144.334 45.8535 144.004 47.4296 144.004ZM47.4595 147.251C46.5718 147.251 45.8336 147.536 45.2451 148.104C44.6665 148.673 44.3323 149.565 44.2425 150.782H50.6466C50.6367 150.104 50.512 149.501 50.2726 148.972C50.0432 148.444 49.694 148.024 49.2252 147.715C48.7663 147.406 48.1778 147.251 47.4595 147.251ZM72.4774 147.745H67.0011V161.047H62.4374V147.745H56.946V144.319H72.4774V147.745ZM80.1684 150.782H83.3854C85.1011 150.782 86.5177 150.962 87.6349 151.321C88.7521 151.68 89.585 152.229 90.1337 152.967C90.6823 153.696 90.9566 154.613 90.9566 155.721C90.9566 156.798 90.7072 157.735 90.2085 158.534C89.7098 159.331 88.9167 159.95 87.8294 160.389C86.7421 160.828 85.3206 161.047 83.5649 161.047H75.6047V144.319H80.1684V150.782ZM86.3929 155.78C86.3929 155.132 86.1337 154.663 85.6149 154.374C85.0962 154.085 84.3231 153.939 83.2956 153.939H80.1684V157.89H83.3556C84.2433 157.89 84.9715 157.73 85.54 157.411C86.1087 157.082 86.3929 156.538 86.3929 155.78ZM101.325 144.004C102.872 144.004 104.204 144.304 105.321 144.902C106.439 145.491 107.301 146.349 107.91 147.476C108.518 148.603 108.823 149.98 108.823 151.605V153.82H98.0343C98.0844 155.107 98.468 156.119 99.1861 156.857C99.9147 157.586 100.922 157.95 102.209 157.95C103.276 157.95 104.254 157.84 105.141 157.621C106.029 157.402 106.942 157.072 107.88 156.633V160.165C107.052 160.574 106.184 160.872 105.276 161.062C104.379 161.251 103.286 161.347 101.999 161.347C100.324 161.347 98.8375 161.037 97.5404 160.419C96.2535 159.8 95.241 158.858 94.5029 157.591C93.7747 156.323 93.4106 154.727 93.4106 152.803C93.4106 150.848 93.7397 149.221 94.3982 147.925C95.0664 146.618 95.9941 145.64 97.1812 144.992C98.3677 144.334 99.7504 144.004 101.325 144.004ZM101.356 147.251C100.468 147.251 99.7294 147.536 99.1418 148.104C98.5624 148.673 98.229 149.565 98.1392 150.782H104.543C104.532 150.104 104.408 149.501 104.169 148.972C103.939 148.444 103.591 148.024 103.122 147.715C102.663 147.406 102.074 147.251 101.356 147.251ZM13.0151 198.353L7.74809 181.19H7.61344C7.63337 181.599 7.66333 182.218 7.7032 183.046C7.7531 183.864 7.79798 184.736 7.83785 185.664C7.87772 186.592 7.89778 187.43 7.89778 188.178V198.353H3.753V176.477H10.0673L15.2444 193.206H15.3343L20.8256 176.477H27.1399V198.353H22.8157V187.998C22.8157 187.31 22.8257 186.518 22.8456 185.62C22.8756 184.721 22.9105 183.869 22.9504 183.061C22.9903 182.243 23.0202 181.629 23.0402 181.22H22.9055L17.2645 198.353H13.0151ZM39.2001 181.31C40.7463 181.31 42.078 181.61 43.1951 182.208C44.3123 182.796 45.1753 183.654 45.7837 184.782C46.3922 185.909 46.6964 187.286 46.6964 188.911V191.126H35.9082C35.9581 192.413 36.3421 193.425 37.0603 194.163C37.7885 194.892 38.7961 195.255 40.0829 195.255C41.1502 195.255 42.1277 195.146 43.0156 194.927C43.9034 194.707 44.8161 194.378 45.7537 193.939V197.47C44.9259 197.88 44.058 198.178 43.1503 198.368C42.2525 198.557 41.1602 198.653 39.8734 198.653C38.1976 198.653 36.7112 198.342 35.4145 197.725C34.1276 197.105 33.1152 196.164 32.377 194.896C31.6488 193.629 31.2847 192.033 31.2847 190.108C31.2847 188.153 31.6138 186.527 32.2723 185.231C32.9406 183.924 33.8683 182.946 35.0554 182.297C36.2424 181.64 37.624 181.31 39.2001 181.31ZM39.23 184.557C38.3421 184.557 37.604 184.841 37.0155 185.41C36.4369 185.979 36.1028 186.871 36.013 188.088H42.4171C42.4071 187.41 42.2824 186.807 42.043 186.278C41.8136 185.749 41.4644 185.33 40.9956 185.021C40.5368 184.712 39.9482 184.557 39.23 184.557ZM57.2004 198.653C55.5445 198.653 54.1329 198.353 52.9659 197.755C51.7988 197.146 50.911 196.208 50.3025 194.942C49.694 193.675 49.3898 192.054 49.3898 190.078C49.3898 188.033 49.7339 186.367 50.4222 185.081C51.1205 183.784 52.0831 182.831 53.31 182.223C54.5469 181.614 55.9784 181.31 57.6044 181.31C58.7615 181.31 59.759 181.425 60.597 181.654C61.4449 181.874 62.1831 182.138 62.8114 182.448L61.4648 185.979C60.7466 185.689 60.0783 185.454 59.4597 185.275C58.8413 185.086 58.2228 184.992 57.6044 184.992C56.8064 184.992 56.143 185.18 55.6143 185.559C55.0856 185.929 54.6916 186.487 54.4322 187.236C54.1729 187.983 54.0432 188.922 54.0432 190.049C54.0432 191.155 54.1828 192.074 54.4622 192.801C54.7415 193.53 55.1454 194.073 55.6741 194.432C56.2028 194.782 56.8462 194.956 57.6044 194.956C58.552 194.956 59.3949 194.832 60.1331 194.583C60.8713 194.323 61.5895 193.964 62.2877 193.505V197.41C61.5895 197.849 60.8564 198.163 60.0882 198.353C59.3301 198.552 58.3675 198.653 57.2004 198.653ZM80.0188 185.051H74.5423V198.353H69.9787V185.051H64.4873V181.625H80.0188V185.051ZM98.3479 189.959C98.3479 191.356 98.159 192.593 97.7802 193.67C97.4106 194.747 96.867 195.66 96.1487 196.407C95.4405 197.146 94.5826 197.705 93.5751 198.084C92.5776 198.462 91.4504 198.653 90.1936 198.653C89.0165 198.653 87.9341 198.462 86.9466 198.084C85.9691 197.705 85.1162 197.146 84.388 196.407C83.6697 195.66 83.1111 194.747 82.7122 193.67C82.323 192.593 82.1285 191.356 82.1285 189.959C82.1285 188.103 82.4578 186.532 83.1161 185.246C83.7744 183.959 84.7121 182.981 85.9291 182.313C87.1461 181.645 88.5975 181.31 90.2833 181.31C91.8495 181.31 93.236 181.645 94.443 182.313C95.66 182.981 96.6126 183.959 97.3009 185.246C97.9993 186.532 98.3479 188.103 98.3479 189.959ZM86.782 189.959C86.782 191.056 86.9017 191.978 87.1411 192.727C87.3805 193.475 87.7546 194.038 88.2634 194.417C88.7721 194.797 89.4355 194.986 90.2534 194.986C91.0614 194.986 91.7147 194.797 92.2136 194.417C92.7222 194.038 93.0913 193.475 93.3207 192.727C93.5602 191.978 93.6799 191.056 93.6799 189.959C93.6799 188.852 93.5602 187.934 93.3207 187.205C93.0913 186.468 92.7222 185.914 92.2136 185.544C91.7048 185.176 91.0415 184.992 90.2234 184.992C89.0165 184.992 88.1386 185.405 87.59 186.233C87.0514 187.061 86.782 188.303 86.782 189.959ZM101.476 196.214C101.476 195.275 101.73 194.618 102.238 194.238C102.757 193.859 103.381 193.67 104.109 193.67C104.817 193.67 105.425 193.859 105.935 194.238C106.454 194.618 106.713 195.275 106.713 196.214C106.713 197.111 106.454 197.759 105.935 198.158C105.425 198.557 104.817 198.757 104.109 198.757C103.381 198.757 102.757 198.557 102.238 198.158C101.73 197.759 101.476 197.111 101.476 196.214Z" fill="black"></path> </g> <defs> <clipPath id="clip0_301_2107"> <rect width="227" height="223" fill="white"></rect> </clipPath> </defs> </svg> 