<?xml version="1.0" encoding="UTF-8"?> <svg xmlns="http://www.w3.org/2000/svg" width="329" height="304" viewBox="0 0 329 304" fill="none"> <path opacity="0.7" d="M44.6991 99.9452C44.6991 99.9452 26.354 147.321 52.1345 195.026C77.9149 242.731 131.016 267.933 173.516 289.482C216.016 311.032 260.148 300.536 281.119 265.241C302.089 229.946 273.328 204.751 273.288 154.421C273.249 104.091 280.822 90.7661 253.548 48.2461C226.274 5.72618 159.415 -3.6898 108.854 27.8481C58.2934 59.3861 44.6991 99.9452 44.6991 99.9452Z" fill="white"></path> <path d="M41.9084 81.5673C59.4835 47.4565 92.1203 21.6498 132.752 18.0176C160.697 15.581 188.549 23.6387 210.876 40.6199C221.97 49.1739 231.827 60.0638 238.374 72.4934C245.888 86.772 248.079 103.235 255.811 117.448C265.424 135.115 283.48 142.406 295.607 157.672C305.589 170.246 309.017 187.097 307.872 203.113C305.78 232.348 288.652 260.102 263.457 275.085C242.158 287.752 216.482 291.245 191.735 290.094C153.571 288.324 115.578 275.736 85.5206 252.16C55.4632 228.584 33.861 193.73 28.7418 155.875C25.261 130.154 30.321 104.051 41.9084 81.5673Z" fill="#0083FC"></path> <path opacity="0.9" d="M41.9084 81.5673C59.4835 47.4565 92.1203 21.6498 132.752 18.0176C160.697 15.581 188.549 23.6387 210.876 40.6199C221.97 49.1739 231.827 60.0638 238.374 72.4934C245.888 86.772 248.079 103.235 255.811 117.448C265.424 135.115 283.48 142.406 295.607 157.672C305.589 170.246 309.017 187.097 307.872 203.113C305.78 232.348 288.652 260.102 263.457 275.085C242.158 287.752 216.482 291.245 191.735 290.094C153.571 288.324 115.578 275.736 85.5206 252.16C55.4632 228.584 33.861 193.73 28.7418 155.875C25.261 130.154 30.321 104.051 41.9084 81.5673Z" fill="white"></path> <path d="M30.3125 94.0364C31.0889 97.1158 30.7073 91.4504 32.2273 84.5283C33.7473 77.6061 36.3595 80.4092 36.3595 80.4092" stroke="#263238" stroke-linecap="round" stroke-linejoin="round"></path> <path d="M29.8398 86.9628L34.6103 85.0085" stroke="#263238" stroke-linecap="round" stroke-linejoin="round"></path> <path d="M38.5511 82.6595C38.5511 82.6595 35.7019 88.5815 39.9987 91.0688" stroke="#263238" stroke-linecap="round" stroke-linejoin="round"></path> <path d="M42.5977 81.0013C42.5977 81.0013 47.3089 83.6333 44.3611 89.279" stroke="#263238" stroke-linecap="round" stroke-linejoin="round"></path> <path d="M39.375 84.6598L42.7505 87.1207" stroke="#263238" stroke-linecap="round" stroke-linejoin="round"></path> <path d="M42.0175 83.5741L39.3789 87.7787" stroke="#263238" stroke-linecap="round" stroke-linejoin="round"></path> <path d="M57.1783 146.593C57.8204 142.681 55.1693 138.989 51.2569 138.347C47.3445 137.705 43.6523 140.356 43.0102 144.268C42.3682 148.181 45.0193 151.873 48.9317 152.515C52.8441 153.157 56.5362 150.506 57.1783 146.593Z" stroke="#263238" stroke-linecap="round" stroke-linejoin="round"></path> <path d="M61.4361 156.038C65.7437 155.155 68.5194 150.947 67.636 146.639C66.7526 142.332 62.5445 139.556 58.237 140.439C53.9294 141.323 51.1537 145.531 52.0371 149.838C52.9205 154.146 57.1286 156.922 61.4361 156.038Z" stroke="#263238" stroke-linecap="round" stroke-linejoin="round"></path> <path d="M56.6352 142.465L53.332 143.643" stroke="#263238" stroke-linecap="round" stroke-linejoin="round"></path> <path d="M57.0945 143.827L52.3438 145.545" stroke="#263238" stroke-linecap="round" stroke-linejoin="round"></path> <path d="M57.2722 145.472L51.9688 147.512" stroke="#263238" stroke-linecap="round" stroke-linejoin="round"></path> <path d="M56.8949 147.716L52.0586 149.927" stroke="#263238" stroke-linecap="round" stroke-linejoin="round"></path> <path d="M56.0427 149.44L52.3711 150.967" stroke="#263238" stroke-linecap="round" stroke-linejoin="round"></path> <path d="M53.5606 134.49C53.3566 133.832 51.0273 133.424 50.9286 135.148C50.8299 136.872 53.3829 135.438 54.1067 134.49C54.1067 134.49 52.7907 136.26 53.3434 136.609" stroke="#263238" stroke-linecap="round" stroke-linejoin="round"></path> <path d="M66.4567 136.635L64.3906 140.932C64.3906 140.932 65.4237 138.78 66.5291 138.958C67.8912 139.201 66.9831 141.432 65.3381 140.61" stroke="#263238" stroke-linecap="round" stroke-linejoin="round"></path> <path d="M291.305 206.791L294.549 209.858" stroke="#263238" stroke-linecap="round" stroke-linejoin="round"></path> <path d="M294.546 205.988L291.828 210.048" stroke="#263238" stroke-linecap="round" stroke-linejoin="round"></path> <path d="M297.738 207.153L300.989 205.942" stroke="#263238" stroke-linecap="round" stroke-linejoin="round"></path> <path d="M302.547 202.56L304.521 204.304" stroke="#263238" stroke-linecap="round" stroke-linejoin="round"></path> <path d="M306.036 200.461L303.535 209.041" stroke="#263238" stroke-linecap="round" stroke-linejoin="round"></path> <path d="M154.609 158.593L163.341 152.585L174.902 153.395L175.626 168.055L167.138 174.122L156.662 173.358L154.609 158.593Z" stroke="#263238" stroke-linecap="round" stroke-linejoin="round"></path> <path d="M156.664 173.358L165.119 167.272L175.628 168.055" stroke="#263238" stroke-linecap="round" stroke-linejoin="round"></path> <path d="M165.116 167.272L163.34 152.585" stroke="#263238" stroke-linecap="round" stroke-linejoin="round"></path> <path d="M154.609 158.593L166.144 159.928L174.902 153.395" stroke="#263238" stroke-linecap="round" stroke-linejoin="round"></path> <path d="M166.145 159.928L167.138 174.122" stroke="#263238" stroke-linecap="round" stroke-linejoin="round"></path> <path d="M256.521 109.341L252.652 121.363L264.694 119.738L256.521 109.341Z" stroke="#263238" stroke-linecap="round" stroke-linejoin="round"></path> <path d="M256.52 109.341L258.671 120.481" stroke="#263238" stroke-linecap="round" stroke-linejoin="round"></path> <path d="M258.332 118.698L259.74 118.474L260.069 120.363" stroke="#263238" stroke-linecap="round" stroke-linejoin="round"></path> <path d="M104.879 219.352L110.893 222.307" stroke="#263238" stroke-linecap="round" stroke-linejoin="round"></path> <path d="M108.951 217.095L107.227 223.379" stroke="#263238" stroke-linecap="round" stroke-linejoin="round"></path> <path d="M109.785 214.029C109.884 213.927 110.005 213.849 110.139 213.803C110.273 213.756 110.416 213.741 110.557 213.76C110.698 213.778 110.832 213.829 110.95 213.909C111.067 213.989 111.164 214.096 111.233 214.22C111.838 215.167 110.654 217.155 110.654 217.155L113.069 216.233" stroke="#263238" stroke-linecap="round" stroke-linejoin="round"></path> <path d="M152.097 12.3719C157.842 15.6027 151.262 23.4987 151.262 28.1047C151.262 32.7107 157.842 32.0527 161.132 33.3687C162.448 33.3687 165.08 33.3687 165.007 36.7114" stroke="#263238" stroke-linecap="round" stroke-linejoin="round"></path> <path d="M145.695 16.5634C146.695 22.005 152.933 20.0771 156.763 21.3207C163.343 23.4592 159.691 30.2498 157.73 34.3557C156.552 36.8034 155.381 40.2382 157.487 42.5609" stroke="#263238" stroke-linecap="round" stroke-linejoin="round"></path> <path d="M146.535 18.6756L153.385 12.9839" stroke="#263238" stroke-linecap="round" stroke-linejoin="round"></path> <path d="M149.223 20.3732L154.381 16.0962" stroke="#263238" stroke-linecap="round" stroke-linejoin="round"></path> <path d="M152.254 24.7028L156.61 21.2812" stroke="#263238" stroke-linecap="round" stroke-linejoin="round"></path> <path d="M151.352 29.8222L159.866 23.7028" stroke="#263238" stroke-linecap="round" stroke-linejoin="round"></path> <path d="M154.617 32.2107L160.552 27.8547" stroke="#263238" stroke-linecap="round" stroke-linejoin="round"></path> <path d="M157.145 41.4687L164.56 35.4282" stroke="#263238" stroke-linecap="round" stroke-linejoin="round"></path> <path d="M157.328 36.7179L162.164 33.316" stroke="#263238" stroke-linecap="round" stroke-linejoin="round"></path> <path d="M60.5035 222.63C67.569 219.804 71.0058 211.786 68.1798 204.72C65.3538 197.655 57.3352 194.218 50.2697 197.044C43.2043 199.87 39.7675 207.889 42.5935 214.954C45.4194 222.02 53.4381 225.456 60.5035 222.63Z" stroke="#263238" stroke-linecap="round" stroke-linejoin="round"></path> <path d="M58.85 196.507C63.6534 190.868 67.7396 187.676 69.3122 188.716C71.7074 190.289 67.4106 201.027 59.7186 212.693C52.0266 224.36 43.8476 232.545 41.4525 230.966C39.8733 229.933 41.2025 224.919 44.4925 218.28" stroke="#263238" stroke-linecap="round" stroke-linejoin="round"></path> <path d="M41.9013 212.667C35.2029 210.739 30.9259 208.489 31.1957 206.692C31.5839 203.85 43.1581 203.192 56.9827 205.265C70.8073 207.337 81.6774 211.266 81.2629 214.095C80.9668 216.069 75.3409 216.97 67.3462 216.668" stroke="#263238" stroke-linecap="round" stroke-linejoin="round"></path> <path d="M43.6563 202.685C38.6029 193.565 36.0761 186.452 37.7869 185.34C40.0373 183.886 48.7361 193.322 57.2177 206.396C65.6993 219.471 70.7462 231.289 68.5024 232.749C67.0153 233.71 62.7054 229.907 57.5006 223.432" stroke="#263238" stroke-linecap="round" stroke-linejoin="round"></path> <path d="M71.2538 194.677C71.0085 195.051 70.6578 195.344 70.2461 195.519C69.8343 195.694 69.38 195.743 68.9405 195.66C68.5009 195.577 68.0959 195.365 67.7765 195.052C67.4571 194.739 67.2376 194.338 67.1458 193.9C67.054 193.463 67.094 193.007 67.2608 192.592C67.4275 192.177 67.7135 191.821 68.0826 191.568C68.4518 191.315 68.8875 191.178 69.3348 191.173C69.7821 191.167 70.2209 191.295 70.5958 191.539C70.8456 191.701 71.0607 191.911 71.229 192.157C71.3973 192.403 71.5154 192.68 71.5765 192.971C71.6377 193.263 71.6406 193.564 71.5853 193.857C71.5299 194.149 71.4173 194.428 71.2538 194.677V194.677Z" fill="#263238"></path> <path d="M63.7617 229.347C63.5163 229.722 63.1656 230.014 62.7539 230.189C62.3421 230.364 61.8878 230.413 61.4483 230.33C61.0087 230.247 60.6037 230.035 60.2843 229.722C59.9649 229.409 59.7454 229.008 59.6536 228.57C59.5618 228.133 59.6018 227.677 59.7686 227.262C59.9353 226.847 60.2213 226.491 60.5904 226.238C60.9596 225.985 61.3953 225.848 61.8426 225.843C62.2899 225.837 62.7287 225.965 63.1036 226.209C63.3534 226.371 63.5685 226.582 63.7368 226.827C63.9051 227.073 64.0232 227.35 64.0844 227.641C64.1455 227.933 64.1484 228.234 64.0931 228.527C64.0377 228.819 63.9251 229.098 63.7617 229.347V229.347Z" fill="#263238"></path> <path d="M51.664 205.824C51.4186 206.198 51.0679 206.491 50.6562 206.666C50.2445 206.841 49.7902 206.89 49.3506 206.806C48.9111 206.723 48.506 206.512 48.1866 206.199C47.8672 205.885 47.6478 205.485 47.556 205.047C47.4642 204.609 47.5042 204.154 47.6709 203.739C47.8377 203.324 48.1236 202.967 48.4928 202.715C48.8619 202.462 49.2976 202.324 49.7449 202.319C50.1922 202.314 50.6311 202.441 51.006 202.685C51.5089 203.015 51.8607 203.53 51.984 204.118C52.1074 204.707 51.9923 205.32 51.664 205.824V205.824Z" fill="#263238"></path> <path d="M195.973 107.334H203.725L207.6 100.623L203.725 93.9113H195.973L192.098 100.623L195.973 107.334Z" stroke="#263238" stroke-linecap="round" stroke-linejoin="round"></path> <path d="M194.846 122.067L190.97 115.355H183.219" stroke="#263238" stroke-linecap="round" stroke-linejoin="round"></path> <path d="M184.258 100.623H192.01L195.885 93.9113L192.01 87.1931H184.258L180.383 93.9113L184.258 100.623Z" stroke="#263238" stroke-linecap="round" stroke-linejoin="round"></path> <path d="M195.973 93.9113H203.725L207.6 87.1932L203.725 80.4816H195.973L192.098 87.1932L195.973 93.9113Z" stroke="#263238" stroke-linecap="round" stroke-linejoin="round"></path> <path d="M195.887 94.951C196.461 94.951 196.927 94.4855 196.927 93.9113C196.927 93.3372 196.461 92.8717 195.887 92.8717C195.313 92.8717 194.848 93.3372 194.848 93.9113C194.848 94.4855 195.313 94.951 195.887 94.951Z" fill="#263238"></path> <path d="M179.7 80.8566C180.274 80.8566 180.739 80.3912 180.739 79.817C180.739 79.2428 180.274 78.7773 179.7 78.7773C179.126 78.7773 178.66 79.2428 178.66 79.817C178.66 80.3912 179.126 80.8566 179.7 80.8566Z" fill="#263238"></path> <path d="M193.809 122.067C193.809 121.861 193.87 121.66 193.984 121.49C194.098 121.319 194.26 121.185 194.45 121.107C194.64 121.028 194.849 121.007 195.051 121.047C195.253 121.088 195.438 121.187 195.583 121.332C195.729 121.477 195.828 121.663 195.868 121.864C195.908 122.066 195.887 122.275 195.809 122.465C195.73 122.655 195.597 122.817 195.426 122.932C195.255 123.046 195.054 123.107 194.848 123.107C194.712 123.107 194.577 123.08 194.45 123.028C194.324 122.975 194.21 122.899 194.113 122.802C194.017 122.706 193.94 122.591 193.888 122.465C193.835 122.339 193.809 122.204 193.809 122.067V122.067Z" fill="#263238"></path> <path d="M183.219 116.395C183.794 116.395 184.259 115.93 184.259 115.356C184.259 114.781 183.794 114.316 183.219 114.316C182.645 114.316 182.18 114.781 182.18 115.356C182.18 115.93 182.645 116.395 183.219 116.395Z" fill="#263238"></path> <path d="M215.102 87.384C215.102 87.1768 215.163 86.9742 215.278 86.802C215.394 86.6298 215.557 86.4958 215.749 86.4168C215.941 86.3378 216.151 86.3175 216.354 86.3584C216.557 86.3993 216.744 86.4996 216.89 86.6465C217.036 86.7935 217.135 86.9805 217.175 87.1839C217.214 87.3873 217.193 87.5979 217.112 87.7889C217.032 87.98 216.897 88.1429 216.724 88.2571C216.551 88.3712 216.348 88.4315 216.141 88.4302C216.004 88.4302 215.868 88.4031 215.742 88.3504C215.615 88.2978 215.5 88.2206 215.404 88.1234C215.307 88.0261 215.231 87.9107 215.179 87.7838C215.127 87.6569 215.101 87.521 215.102 87.384V87.384Z" fill="#263238"></path> <path d="M190.891 116.395C191.465 116.395 191.931 115.93 191.931 115.356C191.931 114.781 191.465 114.316 190.891 114.316C190.317 114.316 189.852 114.781 189.852 115.356C189.852 115.93 190.317 116.395 190.891 116.395Z" fill="#263238"></path> <path d="M206.559 87.384C206.559 87.1771 206.62 86.9748 206.735 86.8027C206.85 86.6307 207.013 86.4966 207.204 86.4174C207.396 86.3382 207.606 86.3175 207.809 86.3579C208.012 86.3982 208.198 86.4979 208.345 86.6442C208.491 86.7905 208.591 86.9769 208.631 87.1799C208.671 87.3828 208.651 87.5932 208.571 87.7844C208.492 87.9755 208.358 88.1389 208.186 88.2539C208.014 88.3688 207.812 88.4302 207.605 88.4302C207.327 88.4302 207.061 88.32 206.865 88.1238C206.669 87.9276 206.559 87.6615 206.559 87.384V87.384Z" fill="#263238"></path> <path d="M194.848 107.341C194.846 107.134 194.907 106.93 195.021 106.757C195.136 106.584 195.299 106.449 195.49 106.369C195.682 106.289 195.893 106.268 196.096 106.308C196.3 106.348 196.487 106.448 196.634 106.595C196.78 106.741 196.88 106.928 196.92 107.132C196.96 107.336 196.939 107.547 196.859 107.738C196.779 107.929 196.644 108.093 196.471 108.207C196.298 108.322 196.095 108.382 195.887 108.381C195.612 108.379 195.349 108.269 195.154 108.074C194.959 107.88 194.849 107.616 194.848 107.341Z" fill="#263238"></path> <path d="M207.605 87.3707H216.14" stroke="#263238" stroke-linecap="round" stroke-linejoin="round"></path> <path d="M195.885 107.341L190.891 115.355" stroke="#263238" stroke-linecap="round" stroke-linejoin="round"></path> <path d="M184.259 87.1932L179.699 79.817" stroke="#263238" stroke-linecap="round" stroke-linejoin="round"></path> <path d="M239.234 60.735C240.128 57.7131 241.992 55.0693 244.537 53.2113C247.083 51.3534 250.169 50.3845 253.319 50.4541C256.47 50.5237 259.51 51.6279 261.971 53.5964C264.432 55.565 266.176 58.2885 266.936 61.3469" stroke="#263238" stroke-linecap="round" stroke-linejoin="round"></path> <path d="M251.356 79.0537C247.855 78.653 244.624 76.9783 242.278 74.3487C239.933 71.7192 238.636 68.3185 238.637 64.7948" stroke="#263238" stroke-linecap="round" stroke-linejoin="round"></path> <path d="M267.352 64.7948C267.352 68.5998 265.841 72.249 263.151 74.9402C260.461 77.6313 256.813 79.144 253.008 79.1458" stroke="#263238" stroke-linecap="round" stroke-linejoin="round"></path> <path d="M268.167 55.6947C272.654 55.1222 275.661 55.4315 276.129 56.7738C277.056 59.4453 267.456 65.2028 254.684 69.6377C241.913 74.0726 230.812 75.4939 229.878 72.8158C229.384 71.388 231.898 69.0784 236.293 66.5583" stroke="#263238" stroke-linecap="round" stroke-linejoin="round"></path> <path d="M190.893 45.8641L192.269 48.6475L195.341 49.0949L193.117 51.2663L193.644 54.326L190.893 52.8784L188.143 54.326L188.669 51.2663L186.445 49.0949L189.518 48.6475L190.893 45.8641Z" stroke="#263238" stroke-linecap="round" stroke-linejoin="round"></path> <path d="M93.7444 38.4484C93.7426 40.9231 92.7592 43.296 91.01 45.0464C89.2608 46.7969 86.8886 47.782 84.4139 47.7854C84.1112 47.7854 83.8151 47.7723 83.5256 47.746C81.7247 47.5751 80.0122 46.8848 78.5962 45.759C77.1803 44.6331 76.1219 43.1201 75.5497 41.404C74.9775 39.6879 74.9162 37.8425 75.3731 36.0921C75.8301 34.3418 76.7856 32.7619 78.1237 31.5445C79.4617 30.327 81.1246 29.5245 82.9102 29.2345C84.6958 28.9444 86.5273 29.1793 88.1819 29.9106C89.8365 30.6419 91.243 31.8381 92.2305 33.3538C93.218 34.8695 93.7439 36.6394 93.7444 38.4484V38.4484Z" stroke="#263238" stroke-linecap="round" stroke-linejoin="round"></path> <path d="M92.2506 40.1329C92.2519 40.4195 92.1682 40.7 92.0099 40.9389C91.8516 41.1779 91.626 41.3644 91.3616 41.475C91.0972 41.5856 90.8059 41.6152 90.5247 41.5601C90.2435 41.505 89.9849 41.3676 89.7818 41.1654C89.5787 40.9632 89.4402 40.7053 89.3838 40.4243C89.3274 40.1433 89.3557 39.8519 89.465 39.5871C89.5744 39.3222 89.7599 39.0957 89.9981 38.9363C90.2363 38.777 90.5165 38.6919 90.803 38.6919C91.1858 38.6919 91.553 38.8435 91.8243 39.1136C92.0956 39.3836 92.2489 39.7501 92.2506 40.1329V40.1329Z" stroke="#263238" stroke-linecap="round" stroke-linejoin="round"></path> <path d="M79.2541 43.8046C79.2546 44.1476 79.1794 44.4864 79.0338 44.7969C78.8882 45.1075 78.6758 45.382 78.4118 45.601C77.1848 44.5881 76.2398 43.2759 75.668 41.7911C76.03 41.5688 76.4472 41.4525 76.8721 41.4556C77.1833 41.4512 77.4924 41.5087 77.7812 41.6248C78.07 41.7409 78.3328 41.9133 78.5545 42.1318C78.7761 42.3504 78.9521 42.6108 79.0722 42.898C79.1923 43.1852 79.2541 43.4933 79.2541 43.8046Z" stroke="#263238" stroke-linecap="round" stroke-linejoin="round"></path> <path d="M90.8018 45.2719C89.0763 46.9061 86.7891 47.8153 84.4126 47.8118C84.1099 47.8118 83.8138 47.7986 83.5243 47.7723C83.4713 47.5191 83.4448 47.2611 83.4453 47.0024C83.4457 46.1277 83.7416 45.2787 84.2848 44.5931C84.8281 43.9075 85.587 43.4255 86.4385 43.2252C87.29 43.0249 88.1842 43.1181 88.9762 43.4895C89.7681 43.861 90.4114 44.4891 90.8018 45.2719V45.2719Z" stroke="#263238" stroke-linecap="round" stroke-linejoin="round"></path> <path d="M82.149 34.7439C83.3337 34.7439 84.2941 33.7835 84.2941 32.5988C84.2941 31.4141 83.3337 30.4537 82.149 30.4537C80.9643 30.4537 80.0039 31.4141 80.0039 32.5988C80.0039 33.7835 80.9643 34.7439 82.149 34.7439Z" stroke="#263238" stroke-linecap="round" stroke-linejoin="round"></path> <path d="M84.1395 38.6919C84.1395 38.8885 84.0812 39.0806 83.9721 39.244C83.8629 39.4073 83.7077 39.5347 83.5261 39.6099C83.3446 39.6851 83.1448 39.7048 82.9521 39.6664C82.7594 39.6281 82.5823 39.5335 82.4434 39.3945C82.3044 39.2556 82.2098 39.0785 82.1714 38.8858C82.1331 38.693 82.1528 38.4933 82.228 38.3117C82.3032 38.1302 82.4305 37.975 82.5939 37.8658C82.7573 37.7566 82.9494 37.6984 83.1459 37.6984C83.2764 37.6984 83.4056 37.7241 83.5261 37.774C83.6467 37.8239 83.7562 37.8971 83.8485 37.9894C83.9408 38.0816 84.0139 38.1912 84.0639 38.3117C84.1138 38.4323 84.1395 38.5615 84.1395 38.6919Z" stroke="#263238" stroke-linecap="round" stroke-linejoin="round"></path> <path d="M91.9865 33.0002C91.7254 33.0858 91.452 33.1281 91.1772 33.1252C90.818 33.1252 90.4624 33.0544 90.1306 32.9167C89.7989 32.7791 89.4976 32.5774 89.2439 32.3231C88.9903 32.0688 88.7893 31.767 88.6524 31.435C88.5156 31.1029 88.4456 30.7471 88.4465 30.3879C88.4397 30.274 88.4397 30.1597 88.4465 30.0458C89.8558 30.7177 91.0733 31.7338 91.9865 33.0002V33.0002Z" stroke="#263238" stroke-linecap="round" stroke-linejoin="round"></path> <path d="M306.529 146.795L307.536 144.531L305.904 143.636C305.964 143.238 305.975 142.833 305.937 142.432L307.608 141.616L306.72 139.307L304.93 139.82C304.69 139.498 304.412 139.206 304.101 138.951L304.713 137.188L302.45 136.181L301.548 137.813C301.148 137.764 300.744 137.764 300.344 137.813L299.535 136.142L297.218 137.03L297.738 138.813C297.415 139.057 297.122 139.338 296.863 139.649L295.106 139.037L294.126 141.268L295.758 142.169C295.697 142.568 295.686 142.972 295.725 143.373L294.047 144.182L294.935 146.499L296.725 145.979C296.967 146.302 297.245 146.595 297.554 146.854L296.949 148.611L299.212 149.618L300.107 147.986C300.506 148.046 300.91 148.057 301.311 148.019L302.127 149.697L304.437 148.808L303.923 147.018C304.244 146.777 304.536 146.499 304.792 146.189L306.529 146.795ZM299.646 145.531C299.127 145.3 298.688 144.92 298.384 144.44C298.08 143.959 297.926 143.399 297.94 142.83C297.955 142.262 298.138 141.711 298.466 141.246C298.793 140.781 299.252 140.425 299.782 140.22C300.313 140.016 300.892 139.974 301.447 140.099C302.002 140.224 302.507 140.511 302.899 140.923C303.291 141.335 303.551 141.854 303.648 142.414C303.745 142.974 303.674 143.551 303.443 144.071C303.132 144.767 302.558 145.311 301.846 145.585C301.135 145.859 300.344 145.84 299.646 145.531V145.531Z" stroke="#263238" stroke-linecap="round" stroke-linejoin="round"></path> <path d="M294.503 158.408L295.871 155.336L293.66 154.112C293.739 153.571 293.752 153.023 293.7 152.48L295.976 151.374L294.785 148.236L292.357 148.94C292.033 148.5 291.655 148.102 291.232 147.755L292.061 145.36L288.962 143.972L287.745 146.183C287.204 146.105 286.657 146.09 286.113 146.137L285.008 143.867L281.862 145.077L282.566 147.499C282.129 147.829 281.732 148.209 281.382 148.631L278.993 147.828L277.625 150.901L279.836 152.125C279.757 152.665 279.744 153.213 279.796 153.756L277.52 154.862L278.73 158.001L281.158 157.303C281.485 157.741 281.862 158.139 282.283 158.487L281.454 160.876L284.534 162.245L285.751 160.027C286.291 160.108 286.839 160.123 287.383 160.073L288.488 162.343L291.634 161.139L290.93 158.711C291.366 158.383 291.764 158.005 292.114 157.586L294.503 158.408ZM285.159 156.691C284.453 156.376 283.856 155.859 283.443 155.205C283.031 154.551 282.822 153.789 282.843 153.016C282.864 152.243 283.113 151.494 283.56 150.862C284.007 150.231 284.631 149.747 285.353 149.471C286.075 149.194 286.863 149.138 287.617 149.31C288.371 149.482 289.057 149.873 289.589 150.435C290.12 150.996 290.473 151.703 290.603 152.465C290.733 153.228 290.633 154.011 290.318 154.717C290.109 155.186 289.81 155.609 289.437 155.962C289.065 156.315 288.627 156.591 288.148 156.774C287.669 156.957 287.158 157.044 286.645 157.03C286.132 157.016 285.627 156.901 285.159 156.691Z" stroke="#263238" stroke-linecap="round" stroke-linejoin="round"></path> <path d="M158.1 129.239C157.198 130.948 156.18 132.592 155.053 134.161C149.207 142.289 140.617 148.027 130.87 150.314C121.122 152.601 110.876 151.283 102.025 146.604C101.111 146.124 100.216 145.61 99.3603 145.071C98.5049 144.531 97.6692 143.979 96.8664 143.386C95.8926 142.682 94.9582 141.932 94.0634 141.149C94.0061 141.106 93.9532 141.058 93.9054 141.004V141.004C88.0744 135.844 83.8125 129.148 81.6067 121.68C79.4008 114.213 79.3399 106.275 81.431 98.7749C83.522 91.2745 87.6807 84.5135 93.4319 79.2644C99.183 74.0153 106.295 70.4897 113.954 69.0905C121.614 67.6914 129.513 68.475 136.749 71.3519C143.984 74.2288 150.264 79.0829 154.872 85.3597C159.48 91.6366 162.229 99.0829 162.806 106.848C163.382 114.613 161.763 122.384 158.133 129.272L158.1 129.239Z" fill="#0083FC"></path> <g opacity="0.6"> <path opacity="0.6" d="M158.098 129.239C157.197 130.948 156.179 132.592 155.052 134.161L154.249 133.503L152.867 132.773L151.413 132.01L151.656 130.253L151.577 128.667C151.492 127.081 152.637 128.377 153.551 127.897C154.265 127.387 154.841 126.709 155.229 125.923C155.229 125.923 155.887 123.811 155.67 122.962C155.316 121.984 154.898 121.03 154.42 120.106L152.064 123.396L150.09 123.245L148.222 122.258L147.978 119.659L147.018 119.159L146.616 117.665L141.424 116.211L140.832 115.171C140.24 114.132 137.852 113.599 137.852 113.599L138.437 112.243L139.358 110.73C140.286 109.216 141.247 111.73 141.247 111.73L142.346 112.302L144.386 110.592L144.925 108.137L148.248 108.328C148.183 107.996 148.234 107.652 148.392 107.352C148.55 107.053 148.806 106.817 149.117 106.683C150.222 106.249 149.735 103.847 149.314 102.959C148.893 102.071 147.34 102.788 147.34 102.788C147.34 102.788 145.649 100.215 145.419 99.1885C145.188 98.162 148.643 98.5305 150.123 97.4974C151.604 96.4644 151.097 94.4114 150.373 94.3654C149.65 94.3193 151.788 89.6936 155.901 90.9635C157.045 91.3188 157.769 91.1938 158.217 90.799C161.302 96.7398 162.903 103.339 162.882 110.034C162.862 116.728 161.22 123.318 158.098 129.239V129.239Z" fill="white"></path> <path opacity="0.6" d="M129.324 111.44L127.916 113.21C127.916 113.21 127.317 111.783 126.462 112.552L125.146 113.724L124.192 116.395L122.481 117.501L121.435 116.954L120.448 116.428L119.375 115.862L118.349 117.836L117.513 119.415C117.92 120.191 118.427 120.91 119.02 121.554L120.836 124.758L123.047 125.877C123.969 125.911 124.887 126.021 125.791 126.206L127.311 127.002L126.771 130.292C126.771 130.292 125.626 132.154 124.863 131.641L124.093 131.134L122.843 135.464L122.79 137.846C122.79 137.846 122.047 138.155 121.297 138.405C120.547 138.655 121.02 138.524 119.448 139.011C117.875 139.498 118 139.478 116.724 139.84C115.635 140.221 114.588 140.71 113.598 141.3L113.71 143.59L110.703 144.031L109.018 143.136L109.433 141.689L109.63 139.425L109.4 137.734L108.676 136.24L110.703 134.405L110.255 133.253L109.104 130.963L106.669 132.279L105.419 132.937L102.59 131.667L102.28 129.95L101.333 126.864L100.451 124.943L98.8851 122.824L98.4903 121.001L99.3721 119.33L99.8392 118.448L98.3982 116.507L98.0034 115.125L95.5754 112.921C95.5754 112.921 96.2795 112.875 96.1215 111.894C95.9636 110.914 97.5099 109.262 97.5099 109.262C98.3851 109.723 101.01 111.552 101.01 111.552L103.307 111.868C103.307 111.868 103.768 111.868 104.215 111C104.738 110.201 105.351 109.465 106.044 108.808C106.044 108.808 104.985 105.13 105.742 104.637C106.498 104.143 107.268 101.735 107.268 101.735L107.873 100.583C107.873 100.583 106.446 99.9583 106.176 99.2016C105.906 98.4449 102.386 99.4517 102.386 99.4517L99.9577 101.136L98.0429 102.617L97.2138 104.189C97.2138 104.189 95.5228 102.156 95.5162 103.294C95.3872 104.461 95.1312 105.611 94.7529 106.723C94.7529 106.723 95.1016 106.907 94.641 107.789C94.1804 108.67 93.6804 108.624 92.667 108.749C91.346 108.762 90.026 108.672 88.719 108.479C88.719 108.479 88.061 110.914 88.5151 111.335L88.9625 111.743C88.9625 111.743 88.2584 113.513 87.561 113.145L85.8633 112.25L83.4879 113.21L80.8559 116.119L80.2703 116C78.6572 105.181 81.3806 94.1618 87.8483 85.3393C94.316 76.5169 104.005 70.6045 114.809 68.8876C114.96 69.5456 115.125 70.1641 115.125 70.1641L114.467 73.4146L113.624 75.0201L112.901 76.3954L111.881 78.3299L114.493 80.7381L113.934 83.5873L112.519 84.4756L112.111 86.6141L114.539 91.3583L115.197 93.2204C114.791 94.1119 114.591 95.0835 114.611 96.063C114.611 96.063 114.907 97.8396 116.204 98.5436C117.5 99.2477 119.204 100.077 119.204 100.077L119.066 102.709L118.48 103.367L119.454 106.203C122.422 107.367 122.139 108.341 122.422 107.367L122.711 106.4L124.731 105.67L127.304 108.743C127.604 108.739 127.899 108.81 128.164 108.95C128.428 109.091 128.653 109.295 128.818 109.545C129.568 110.493 130.739 109.67 129.324 111.44Z" fill="white"></path> <path opacity="0.6" d="M94.4518 134.359C94.5241 135.293 93.3397 136.464 93.3397 136.464L94.307 136.971L94.6031 139.603L93.8727 140.998C88.6973 136.426 84.7497 130.63 82.3906 124.14L82.917 121.35L85.2398 121.021C85.2398 121.021 87.319 119.639 88.2402 120.008C89.1614 120.376 90.0037 122.64 90.0037 122.64C90.0037 122.64 90.6617 125.693 90.5761 125.633H90.5367H90.5893L91.5368 126.134L91.8066 127.338L90.4906 129.838H88.3718C88.3718 129.838 87.9507 129.614 87.9112 130.713C87.9456 131.095 88.0614 131.464 88.251 131.797C88.4406 132.129 88.6995 132.417 89.0101 132.641L91.2999 132.056L91.9119 129.687L94.1622 129.246C94.1622 129.246 93.8398 130.7 94.3662 130.976L94.8992 131.259L95.215 132.996C94.9793 133.136 94.7847 133.336 94.6507 133.575C94.5167 133.814 94.448 134.084 94.4518 134.359Z" fill="white"></path> <path opacity="0.6" d="M105.332 138.083C105.128 137.517 105.042 137.024 103.641 136.287C102.239 135.55 102.325 135.813 101.772 136.425C101.534 136.74 101.209 136.978 100.837 137.11C100.465 137.242 100.063 137.262 99.6795 137.168C98.7583 136.964 99.2387 138.004 99.2387 138.004L99.4624 140.814L96.8633 143.38C97.666 143.972 98.4973 144.533 99.3571 145.064L99.9098 143.367L104.226 144.63C103.312 144.36 103.851 143.11 103.851 143.11L102.93 142.623C102.93 142.623 105.536 138.636 105.332 138.083Z" fill="white"></path> <path opacity="0.6" d="M132.521 123.475L131.106 122.047L129.487 122.554L128.829 123.87L128.336 124.818L128.994 126.134L130.31 127.732L131.06 126.298C131.06 126.298 133.146 126.298 134.238 125.094C135.33 123.89 132.521 123.475 132.521 123.475Z" fill="white"></path> <path opacity="0.6" d="M128.363 117.033L130.995 118.415L131.101 117.797C131.238 117.301 131.48 116.841 131.811 116.448L129.798 114.316L128.363 117.033Z" fill="white"></path> <path opacity="0.6" d="M127.47 147.663L126.713 146.551L125.832 146.091H123.14L121.607 148.999C121.607 148.999 120.14 148.802 118.212 148.631C116.284 148.46 116.758 149.256 116.758 149.256L116.258 151.085C121.122 151.684 126.054 151.419 130.826 150.302C130.271 149.915 129.696 149.559 129.102 149.236L127.47 147.663Z" fill="white"></path> </g> <path d="M158.1 129.239C157.198 130.948 156.18 132.592 155.053 134.161C149.207 142.289 140.617 148.027 130.87 150.314C121.122 152.601 110.876 151.283 102.025 146.604C101.111 146.124 100.216 145.61 99.3603 145.071C98.5049 144.531 97.6692 143.979 96.8664 143.386C95.8926 142.682 94.9582 141.932 94.0634 141.149C94.0061 141.106 93.9532 141.058 93.9054 141.004V141.004C88.0744 135.844 83.8125 129.148 81.6067 121.68C79.4008 114.213 79.3399 106.275 81.431 98.7749C83.522 91.2745 87.6807 84.5135 93.4319 79.2644C99.183 74.0153 106.295 70.4897 113.954 69.0905C121.614 67.6914 129.513 68.475 136.749 71.3519C143.984 74.2288 150.264 79.0829 154.872 85.3597C159.48 91.6366 162.229 99.0829 162.806 106.848C163.382 114.613 161.763 122.384 158.133 129.272L158.1 129.239Z" stroke="#263238" stroke-linecap="round" stroke-linejoin="round"></path> <path d="M130.826 150.302C126.054 151.419 121.122 151.684 116.258 151.085L116.758 149.256C116.758 149.256 116.284 148.46 118.212 148.631C120.14 148.802 121.607 148.999 121.607 148.999L123.14 146.091H125.832L126.713 146.551L127.47 147.663L129.102 149.236C129.696 149.559 130.271 149.915 130.826 150.302Z" stroke="#263238" stroke-linecap="round" stroke-linejoin="round"></path> <path d="M158.243 90.8056C157.796 91.2004 157.072 91.3254 155.927 90.9701C151.814 89.7002 149.682 94.3193 150.4 94.372C151.117 94.4246 151.624 96.5039 150.15 97.5041C148.676 98.5042 145.215 98.1621 145.445 99.1951C145.675 100.228 147.366 102.794 147.366 102.794C147.366 102.794 148.88 102.084 149.307 102.965C149.735 103.847 150.222 106.255 149.117 106.69C148.806 106.823 148.55 107.059 148.392 107.359C148.234 107.658 148.183 108.003 148.248 108.335L144.925 108.144L144.386 110.598L142.346 112.309L141.247 111.737C141.247 111.737 140.286 109.223 139.358 110.736L138.437 112.25L137.852 113.605C137.852 113.605 140.24 114.138 140.832 115.178L141.424 116.218L146.616 117.672L147.018 119.165L147.978 119.665L148.222 122.265L150.156 123.278L152.13 123.429L154.486 120.139C154.964 121.063 155.382 122.017 155.736 122.995C155.966 123.844 155.295 125.956 155.295 125.956C154.907 126.742 154.331 127.42 153.617 127.93C152.676 128.41 151.525 127.114 151.643 128.7L151.722 130.286L151.479 132.042L152.933 132.806L154.315 133.536L155.117 134.194" stroke="#263238" stroke-linecap="round" stroke-linejoin="round"></path> <path d="M80.3242 116L80.9098 116.119L83.5418 113.21L85.9172 112.25L87.6149 113.145C88.3123 113.513 89.0164 111.743 89.0164 111.743L88.569 111.335C88.1149 110.914 88.7729 108.479 88.7729 108.479C90.0799 108.672 91.3999 108.762 92.7209 108.749C93.7606 108.624 94.2541 108.664 94.6949 107.789C95.1358 106.913 94.8068 106.723 94.8068 106.723C95.1851 105.611 95.4411 104.461 95.5701 103.294C95.5701 102.156 97.2677 104.189 97.2677 104.189L98.0968 102.617L99.9524 101.143L102.38 99.4582C102.38 99.4582 105.901 98.4449 106.17 99.2082C106.44 99.9715 107.868 100.59 107.868 100.59L107.263 101.742C107.263 101.742 106.486 104.137 105.736 104.643C104.986 105.15 106.039 108.815 106.039 108.815C105.346 109.472 104.732 110.207 104.21 111.006C103.749 111.888 103.302 111.875 103.302 111.875L101.005 111.559C101.005 111.559 98.3732 109.73 97.5046 109.269C97.5046 109.269 95.9583 110.921 96.1162 111.901C96.2741 112.881 95.5701 112.928 95.5701 112.928L97.9981 115.132L98.3929 116.514L99.8339 118.455L99.3667 119.336L98.485 121.008L98.8798 122.83L100.446 124.949L101.334 126.864L102.295 129.963L102.604 131.681L105.434 132.95L106.684 132.292L109.118 130.976L110.27 133.266L110.717 134.418L108.691 136.254L109.414 137.747L109.645 139.438L109.447 141.702L109.033 143.149L110.717 144.044L113.724 143.61L113.612 141.314C114.603 140.723 115.65 140.234 116.738 139.853C118.014 139.491 117.889 139.511 119.462 139.024C121.035 138.537 120.554 138.668 121.311 138.418C122.068 138.168 122.805 137.859 122.805 137.859L122.857 135.477L124.108 131.148L124.877 131.654C125.641 132.167 126.786 130.305 126.786 130.305L127.325 127.015L125.772 126.206C124.868 126.021 123.951 125.911 123.028 125.877L120.864 124.739L119.048 121.534C118.454 120.89 117.948 120.171 117.541 119.396L118.376 117.816L119.403 115.842L120.475 116.408L121.462 116.935L122.509 117.481L124.219 116.375L125.174 113.704L126.49 112.533C127.345 111.756 127.944 113.191 127.944 113.191L129.352 111.421C130.767 109.651 129.595 110.473 128.871 109.565C128.707 109.315 128.482 109.11 128.217 108.97C127.953 108.83 127.657 108.758 127.358 108.762L124.785 105.69L122.739 106.466L122.449 107.433C122.166 108.407 122.449 107.433 119.482 106.269L118.508 103.433L119.094 102.775L119.232 100.143C119.232 100.143 117.528 99.3069 116.231 98.6094C114.935 97.9119 114.639 96.1288 114.639 96.1288C114.618 95.1493 114.818 94.1777 115.225 93.2862L114.567 91.4241L112.139 86.6799L112.546 84.5414L113.961 83.6531L114.52 80.8039L111.981 78.3957L113.001 76.4611L113.724 75.0859L114.567 73.4804L115.225 70.2299C115.225 70.2299 115.06 69.6245 114.909 68.9534" stroke="#263238" stroke-linecap="round" stroke-linejoin="round"></path> <path d="M94.0937 141.142C94.0426 141.084 93.9853 141.031 93.9226 140.985V140.985L94.653 139.59L94.3569 136.958L93.3896 136.451C93.3896 136.451 94.574 135.28 94.5017 134.345C94.4889 134.067 94.5511 133.789 94.6819 133.543C94.8127 133.296 95.0072 133.09 95.2452 132.944L94.9294 131.207L94.3964 130.924C93.87 130.647 94.1924 129.193 94.1924 129.193L91.942 129.634L91.3301 132.003L89.0403 132.588C88.7297 132.365 88.4708 132.077 88.2812 131.744C88.0916 131.411 87.9757 131.042 87.9414 130.661C87.9809 129.562 88.402 129.785 88.402 129.785H90.5208L91.8368 127.285L91.567 126.081L90.6195 125.581" stroke="#263238" stroke-linecap="round" stroke-linejoin="round"></path> <path d="M90.5605 125.581C90.6658 125.64 89.9881 122.587 89.9881 122.587C89.9881 122.587 89.1458 120.356 88.2246 119.955C87.3034 119.554 85.2241 120.968 85.2241 120.968L82.9014 121.297L82.375 124.087" stroke="#263238" stroke-linecap="round" stroke-linejoin="round"></path> <path d="M99.9098 143.367L99.3571 145.064C98.4798 144.529 97.6485 143.968 96.8633 143.38L99.4624 140.814L99.2387 138.004C99.2387 138.004 98.7583 136.964 99.6795 137.168C100.063 137.262 100.465 137.242 100.837 137.11C101.209 136.978 101.534 136.74 101.772 136.425C102.312 135.813 102.246 135.55 103.641 136.287C105.036 137.024 105.128 137.517 105.332 138.083C105.536 138.649 102.93 142.643 102.93 142.643L103.851 143.13C103.851 143.13 103.312 144.38 104.226 144.65L99.9098 143.367Z" stroke="#263238" stroke-linecap="round" stroke-linejoin="round"></path> <path d="M129.49 122.554L131.109 122.047L132.524 123.475C132.524 123.475 135.32 123.837 134.228 125.054C133.136 126.272 131.05 126.259 131.05 126.259L130.286 127.693L128.97 126.094L128.312 124.778L128.806 123.831L129.49 122.554Z" stroke="#263238" stroke-linecap="round" stroke-linejoin="round"></path> <path d="M131.811 116.448C131.48 116.841 131.238 117.301 131.101 117.797L130.995 118.415L128.363 117.033L129.798 114.316L131.811 116.448Z" stroke="#263238" stroke-linecap="round" stroke-linejoin="round"></path> <path d="M274.605 271.657C271.078 274.592 243.909 293.239 205.14 290.232C203.054 272.585 195.099 200.086 204.146 188.716C204.146 188.716 226.097 178.247 246.318 182.643C266.538 187.038 274.408 191.249 275.849 194.895C276.941 197.652 275.381 248.989 274.605 271.657Z" fill="#263238"></path> <path d="M245.646 190.387C233.999 200.474 218.997 198.342 219.326 190.598C219.378 189.387 220.674 187.887 220.674 187.887L220.22 187.189L218.246 184.209C216.805 181.978 215.002 179.175 213.746 177.135C212.693 175.398 238.94 159.251 238.94 168.535C238.94 181.616 245.363 184.077 245.363 184.077C247.784 185.051 250.041 186.591 245.646 190.387Z" fill="white" stroke="#263238" stroke-linecap="round" stroke-linejoin="round"></path> <path d="M253.009 210.364C253.009 210.364 250.659 218.418 251.772 220.728" stroke="white" stroke-linecap="round" stroke-linejoin="round"></path> <path d="M250.265 186.979C250.265 194.75 227.084 202.363 220.293 194.566" stroke="white" stroke-linecap="round" stroke-linejoin="round"></path> <path d="M231.193 178.01C231.193 178.01 229.64 183.866 222.402 188.44C222.057 187.847 221.5 187.407 220.843 187.209C220.625 187.174 220.403 187.174 220.185 187.209L218.211 184.228C221.955 181.531 231.193 178.01 231.193 178.01Z" fill="#263238"></path> <path d="M234.444 170.812C234.444 170.812 234.365 176.589 233.128 177.767C223.949 186.571 214.974 187.268 213.493 184.946C203.525 169.312 205.88 165.206 204.867 162.528C203.071 157.829 200.866 150.157 201.84 145.512C204.012 135.135 223.554 127.088 233.845 137.524C238.78 142.518 240.34 153.355 239.3 162.383" fill="white"></path> <path d="M234.444 170.812C234.444 170.812 234.365 176.589 233.128 177.767C223.949 186.571 214.974 187.268 213.493 184.946C203.525 169.312 205.88 165.206 204.867 162.528C203.071 157.829 200.866 150.157 201.84 145.512C204.012 135.135 223.554 127.088 233.845 137.524C238.78 142.518 240.34 153.355 239.3 162.383" stroke="#263238" stroke-linecap="round" stroke-linejoin="round"></path> <path d="M206.125 157.698C206.125 157.698 203.381 156.467 202.789 157.935" stroke="#263238" stroke-linecap="round" stroke-linejoin="round"></path> <path d="M212.777 157.79C212.777 157.79 218.482 155.401 221.048 158.303" stroke="#263238" stroke-linecap="round" stroke-linejoin="round"></path> <path d="M219.116 161.837C219.208 162.692 218.793 163.436 218.181 163.508C217.569 163.58 217.003 162.929 216.911 162.074C216.819 161.218 217.234 160.468 217.846 160.402C218.458 160.336 218.997 160.981 219.116 161.837Z" fill="#263238"></path> <path d="M207.928 162.093C208.027 162.949 207.606 163.699 206.994 163.765C206.382 163.83 205.816 163.192 205.724 162.337C205.632 161.481 206.046 160.731 206.658 160.665C207.27 160.6 207.823 161.238 207.928 162.093Z" fill="#263238"></path> <path d="M208.205 159.843C209.001 161.126 208.567 163.317 207.514 166.324C206.461 169.331 207.389 170.417 211.429 170.72" fill="white"></path> <path d="M208.205 159.843C209.001 161.126 208.567 163.317 207.514 166.324C206.461 169.331 207.389 170.417 211.429 170.72" stroke="#263238" stroke-linecap="round" stroke-linejoin="round"></path> <path d="M211.43 175.924C211.43 175.924 216.694 175.444 219.102 174.121" stroke="#263238" stroke-linecap="round" stroke-linejoin="round"></path> <path d="M244.777 146.091C244.777 142.182 240.921 134.161 234.156 133.26C230.268 129.193 224.727 127.7 218.003 129.246C202.461 132.812 197.73 148.157 197.052 150.697C196.986 150.934 196.953 151.065 196.953 151.065L201.112 150.012L199.322 153.506L201.5 154.947L201 155.5L203.527 157.935L202.737 153.487C203.224 150.618 206.527 146.604 206.527 146.604C205.321 148.166 204.57 150.031 204.356 151.993C205.672 148.578 213.568 145.413 213.568 145.413C211.008 147.492 209.62 151.559 209.62 151.559C212.054 148.558 217.759 146.617 221.411 145.584C222.641 148.552 224.596 151.651 227.386 153.368C230.018 154.987 229.925 158.33 229.925 158.33C232.757 160.298 234.844 163.163 235.847 166.462L239.032 170.818C239.032 170.818 244.777 163.771 244.777 146.091Z" fill="#263238"></path> <path d="M231.373 159.448C230.307 157.165 234.176 150.98 236.92 151.743C238.459 152.177 240.473 154.987 240.868 157.935C241.262 160.883 239.177 166.489 236.952 167.706C235.538 168.496 234.373 166.344 234.373 166.344" fill="white"></path> <path d="M231.373 159.448C230.307 157.165 234.176 150.98 236.92 151.743C238.459 152.177 240.473 154.987 240.868 157.935C241.262 160.883 239.177 166.489 236.952 167.706C235.538 168.496 234.373 166.344 234.373 166.344" stroke="#263238" stroke-linecap="round" stroke-linejoin="round"></path> <path d="M63.5039 271.13L137.851 253.746L292.929 271.657L253.001 298.964L63.5039 271.13Z" fill="white"></path> <path d="M63.5039 271.13L137.851 253.746L292.929 271.657" fill="white"></path> <path d="M63.5039 271.13L137.851 253.746L292.929 271.657" stroke="#263238" stroke-linecap="round" stroke-linejoin="round"></path> <path d="M127.844 274.618L157.941 261.313L195.993 263.281L179.069 277.75L127.844 274.618Z" fill="white" stroke="#263238" stroke-linecap="round" stroke-linejoin="round"></path> <path d="M205.613 188.058C195.96 192.006 193.88 200.882 177.476 235.96C177.476 235.96 170.192 237.454 166.29 246.304C162.388 255.154 168.922 262.142 176.443 261.905C176.443 261.905 179.464 264.537 185.655 264.268C191.847 263.998 219.213 222.123 219.213 222.123L205.613 188.058Z" fill="#263238"></path> <path d="M180.352 238.02C184.668 241.863 187.149 247.502 185.833 253.753" stroke="white" stroke-linecap="round" stroke-linejoin="round"></path> <path d="M184.516 239.869C184.516 239.869 189.819 241.027 190.642 247.818" stroke="white" stroke-linecap="round" stroke-linejoin="round"></path> <path d="M200.03 219.997C197.525 213.815 196.659 207.09 197.517 200.474" stroke="white" stroke-linecap="round" stroke-linejoin="round"></path> <path d="M199.281 211.048C198.879 213.812 201.735 228.525 201.715 243.995" stroke="white" stroke-linecap="round" stroke-linejoin="round"></path> <path d="M271.439 190.966C283.513 197.033 284.948 215.701 273.558 238.02C265.511 253.772 254.403 277.033 247.376 278.592C240.349 280.152 233.492 275.776 233.492 275.776C233.492 275.776 227.57 275.5 225.78 271.288C220.885 259.78 233.328 245.238 238.197 248.719C238.197 248.719 253.831 214.72 256.68 212.575" fill="#263238"></path> <path d="M224.66 264.294C223.061 256.352 235.563 246.982 238.195 248.719C238.195 248.719 247.48 249.239 248.868 255.661" stroke="white" stroke-linecap="round" stroke-linejoin="round"></path> <path d="M258.672 265.985C264.107 256.398 273.556 238.02 273.556 238.02" stroke="white" stroke-linecap="round" stroke-linejoin="round"></path> <path d="M238.195 248.719C238.195 248.719 244.703 244.824 249.566 248.508" stroke="white" stroke-linecap="round" stroke-linejoin="round"></path> <path d="M240.422 243.988C240.422 243.988 244.015 236.092 247.66 228.854C251.305 221.616 259.649 210.897 263.116 210.377" stroke="white" stroke-linecap="round" stroke-linejoin="round"></path> <path d="M171.843 258.181C171.062 258.143 170.298 257.934 169.606 257.569C158.42 251.733 149.722 242.086 144.484 235.164C142.447 232.519 140.573 229.752 138.871 226.88L141.556 215.378C141.556 215.378 144.082 221.958 154.235 228.426C164.388 234.894 176.449 237.026 180.351 243.56C183.806 249.252 177.719 258.464 171.843 258.181Z" fill="white"></path> <path opacity="0.4" d="M171.843 258.181C171.719 257.349 171.498 256.534 171.185 255.753C168.836 249.871 154.624 238.178 154.624 238.178C151.241 238.073 147.524 236.664 144.497 235.164C142.456 232.519 140.577 229.752 138.871 226.88L141.556 215.378C141.556 215.378 144.082 221.958 154.235 228.426C164.388 234.894 176.449 237.026 180.351 243.56C183.806 249.252 177.719 258.464 171.843 258.181Z" fill="#0083FC"></path> <path d="M171.843 258.181C171.062 258.143 170.298 257.934 169.606 257.569C158.42 251.733 149.722 242.086 144.484 235.164C142.447 232.519 140.573 229.752 138.871 226.88L141.556 215.378C141.556 215.378 144.082 221.958 154.235 228.426C164.388 234.894 176.449 237.026 180.351 243.56C183.806 249.252 177.719 258.464 171.843 258.181Z" stroke="#263238" stroke-linecap="round" stroke-linejoin="round"></path> <path d="M146.51 226.182C146.51 226.182 145.122 232.315 141.463 230.94C139.489 230.196 135.686 224.301 134.969 221.326L146.51 226.182Z" fill="white" stroke="#263238" stroke-linecap="round" stroke-linejoin="round"></path> <path d="M130.383 188.42L133.37 186.88C133.37 186.88 141.812 186.953 147.05 191.21C151.807 195.079 154.222 201.139 154.222 201.139C154.222 201.139 172.705 190.933 191.583 196.79L199.282 239.698L163.888 242.014L141.799 221.03L130.383 188.42Z" fill="white" stroke="#263238" stroke-linecap="round" stroke-linejoin="round"></path> <path d="M201.716 241.415C201.716 241.415 197.564 241.29 192.01 241.474C183.614 241.738 172.014 242.685 166.71 245.771L166.46 245.686L161.604 243.988L161.505 243.843C160.61 242.527 153.392 232.164 143.081 227.946L128.5 187.203C128.5 187.203 143.634 187.861 151.905 201.534L156.057 203.034C156.057 203.034 180.765 195.717 194.596 198.349L201.716 241.415Z" fill="#0083FC"></path> <path opacity="0.3" d="M161.505 243.85C160.61 242.534 153.392 232.17 143.081 227.952L128.5 187.209C128.5 187.209 143.634 187.867 151.905 201.54L161.505 243.85Z" fill="black" fill-opacity="0.7"></path> <path opacity="0.3" d="M192.011 241.474C183.615 241.738 172.014 242.685 166.711 245.771L166.461 245.686L156.762 204.508C156.762 204.508 164.697 202.725 167.138 203.626C167.132 203.639 183.266 215.543 192.011 241.474Z" fill="black" fill-opacity="0.7"></path> <path d="M201.716 241.415C201.716 241.415 197.564 241.29 192.01 241.474C183.614 241.738 172.014 242.685 166.71 245.771L166.46 245.686L161.604 243.988L161.505 243.843C160.61 242.527 153.392 232.164 143.081 227.946L128.5 187.203C128.5 187.203 143.634 187.861 151.905 201.534L156.057 203.034C156.057 203.034 180.765 195.717 194.596 198.349L201.716 241.415Z" stroke="#263238" stroke-linecap="round" stroke-linejoin="round"></path> <path d="M156.07 203.041L165.592 242.54" stroke="#263238" stroke-linecap="round" stroke-linejoin="round"></path> <path d="M161.607 243.995L152.355 204.521" stroke="#263238" stroke-linecap="round" stroke-linejoin="round"></path> <path d="M138.103 226.913C135.991 226.327 131.733 213.634 133.681 208.166C133.681 208.166 135.997 204.146 136.971 203.87C138.445 203.442 144.393 203.567 144.104 204.567C143.446 206.883 138.879 206.844 138.879 206.844L137.399 209.555L137.458 211.048C137.458 211.048 139.61 209.482 140.399 209.529C140.807 209.529 142.913 210.581 144.584 211.463C146.012 212.22 146.887 212.634 146.558 213.319C145.499 215.595 140.991 213.977 140.991 213.977L139.294 216.536C139.294 216.536 140.932 216.819 141.649 216.898C142.367 216.977 148.321 220.945 148.144 221.438C147.44 223.373 141.794 221.28 141.794 221.28L140.794 222.116C140.794 222.116 144.952 223.189 145.4 223.346C146.058 223.59 148.591 225.538 148.552 225.761C148.249 227.472 144.755 226.215 144.755 226.215L141.695 226.09C141.229 226.501 140.669 226.791 140.064 226.933" fill="white"></path> <path d="M138.103 226.913C135.991 226.327 131.733 213.634 133.681 208.166C133.681 208.166 135.997 204.146 136.971 203.87C138.445 203.442 144.393 203.567 144.104 204.567C143.446 206.883 138.879 206.844 138.879 206.844L137.399 209.555L137.458 211.048C137.458 211.048 139.61 209.482 140.399 209.529C140.807 209.529 142.913 210.581 144.584 211.463C146.012 212.22 146.887 212.634 146.558 213.319C145.499 215.595 140.991 213.977 140.991 213.977L139.294 216.536C139.294 216.536 140.932 216.819 141.649 216.898C142.367 216.977 148.321 220.945 148.144 221.438C147.44 223.373 141.794 221.28 141.794 221.28L140.794 222.116C140.794 222.116 144.952 223.189 145.4 223.346C146.058 223.59 148.591 225.538 148.552 225.761C148.249 227.472 144.755 226.215 144.755 226.215L141.695 226.09C141.229 226.501 140.669 226.791 140.064 226.933" stroke="#263238" stroke-linecap="round" stroke-linejoin="round"></path> <path d="M137.431 211.048C137.431 211.048 135.457 212.707 134.95 213.187C134.443 213.667 134.568 215.194 134.568 215.194" stroke="#263238" stroke-linecap="round" stroke-linejoin="round"></path> <path d="M136.004 218.563C136.004 220.234 137.123 221.248 137.636 221.787C138.149 222.327 136.813 223.794 138.294 224.847" stroke="#263238" stroke-linecap="round" stroke-linejoin="round"></path> <path d="M233.466 271.538C229.288 272.677 224.748 265.333 219.208 257.319C215.549 252.055 211.456 246.442 206.752 242.843C206.377 242.56 205.995 242.284 205.613 242.021L208.364 228.203C214.075 231.196 217.615 235.993 223.544 240.922C233.085 248.864 241.54 253.739 243.883 257.253C246.225 260.767 240.625 269.584 233.466 271.538Z" fill="white"></path> <path opacity="0.4" d="M219.206 257.312C215.547 252.048 211.455 246.436 206.75 242.836C207.37 242.868 207.99 242.774 208.573 242.56C208.573 242.56 216.008 248.594 219.206 257.312Z" fill="#0083FC"></path> <path d="M233.466 271.538C229.288 272.677 224.748 265.333 219.208 257.319C215.549 252.055 211.456 246.442 206.752 242.843C206.377 242.56 205.995 242.284 205.613 242.021L208.364 228.203C214.075 231.196 217.615 235.993 223.544 240.922C233.085 248.864 241.54 253.739 243.883 257.253C246.225 260.767 240.625 269.584 233.466 271.538Z" stroke="#263238" stroke-linecap="round" stroke-linejoin="round"></path> <path d="M209.902 241.474C209.617 241.985 209.146 242.367 208.586 242.54C208.438 242.599 208.286 242.649 208.132 242.692H208.007C203.592 243.843 193.656 241.448 193.656 241.448C193.656 241.448 187.149 238.355 186.754 237.625C186.479 237.046 186.235 236.453 186.024 235.849L185.846 235.329C185.846 235.329 183.504 234.013 183.214 232.986C182.924 231.96 182.431 231.67 183.872 231.486C185.313 231.302 193.084 231.486 193.084 231.486L184.629 228.038C184.629 228.038 179.029 225.215 178.509 224.222C177.99 223.228 177.338 222.57 180.2 222.965C183.063 223.36 189.314 225.176 189.314 225.176L194.242 226.222L189.347 224.136C189.347 224.136 179.713 222.971 181.536 219.978H187.004C190.102 220.114 193.183 220.506 196.216 221.149C197.808 221.636 208.336 228.176 208.336 228.176" fill="white"></path> <path opacity="0.4" d="M207.996 242.718C203.58 243.869 193.645 241.474 193.645 241.474C193.645 241.474 187.137 238.382 186.742 237.651C186.467 237.073 186.223 236.48 186.012 235.875L194 236.75C193.72 237.253 193.574 237.819 193.574 238.395C193.574 238.971 193.72 239.537 194 240.04C194.888 241.639 205.008 243.258 207.996 242.718Z" fill="#0083FC"></path> <path d="M209.902 241.474C209.617 241.985 209.146 242.367 208.586 242.54C208.438 242.599 208.286 242.649 208.132 242.692H208.007C203.592 243.843 193.656 241.448 193.656 241.448C193.656 241.448 187.149 238.355 186.754 237.625C186.479 237.046 186.235 236.453 186.024 235.849L185.846 235.329C185.846 235.329 183.504 234.013 183.214 232.986C182.924 231.96 182.431 231.67 183.872 231.486C185.313 231.302 193.084 231.486 193.084 231.486L184.629 228.038C184.629 228.038 179.029 225.215 178.509 224.222C177.99 223.228 177.338 222.57 180.2 222.965C183.063 223.36 189.314 225.176 189.314 225.176L194.242 226.222L189.347 224.136C189.347 224.136 179.713 222.971 181.536 219.978H187.004C190.102 220.114 193.183 220.506 196.216 221.149C197.808 221.636 208.336 228.176 208.336 228.176" stroke="#263238" stroke-linecap="round" stroke-linejoin="round"></path> <path d="M185.832 235.355L195.445 236.77" stroke="#263238" stroke-linecap="round" stroke-linejoin="round"></path> <path d="M90 264.794L114.096 272.032L158.182 261.971C158.182 261.971 131.257 254.325 131.007 254.516C130.757 254.707 90 264.794 90 264.794Z" fill="#0083FC"></path> <path opacity="0.3" d="M90 264.794L114.096 272.032L158.182 261.971C158.182 261.971 131.257 254.325 131.007 254.516C130.757 254.707 90 264.794 90 264.794Z" fill="black" fill-opacity="0.7"></path> <path d="M90 264.794L114.096 272.032L158.182 261.971C158.182 261.971 131.257 254.325 131.007 254.516C130.757 254.707 90 264.794 90 264.794Z" stroke="#263238" stroke-linecap="round" stroke-linejoin="round"></path> <path d="M90.349 256.306C88.658 256.424 88.2368 262.517 90.0003 264.794L128.928 256.714L132.046 249.331L90.349 256.306Z" fill="#0083FC"></path> <path opacity="0.3" d="M90.349 256.306C88.658 256.424 88.2368 262.517 90.0003 264.794L128.928 256.714L132.046 249.331L90.349 256.306Z" fill="black" fill-opacity="0.7"></path> <path d="M90.349 256.306C88.658 256.424 88.2368 262.517 90.0003 264.794L128.928 256.714L132.046 249.331L90.349 256.306Z" stroke="#263238" stroke-linecap="round" stroke-linejoin="round"></path> <path d="M156.296 256.22C156.296 256.22 155.717 259.425 156.092 261.399L114.052 270.913L91.8907 264.386C91.8907 264.386 89.5877 260.313 91.5946 257.148L132.088 250.272L156.296 256.22Z" fill="white" stroke="#263238" stroke-linecap="round" stroke-linejoin="round"></path> <path d="M90.3516 256.306L132.049 249.331L157.941 255.891L114.395 264.57L90.3516 256.306Z" fill="#0083FC" stroke="#263238" stroke-linecap="round" stroke-linejoin="round"></path> <path d="M91.832 260.201L113.882 266.768L149.973 259.504" stroke="#263238" stroke-linecap="round" stroke-linejoin="round"></path> <path d="M155.973 260.175L117.164 268.452" stroke="#263238" stroke-linecap="round" stroke-linejoin="round"></path> <path d="M92.3516 262.787C92.6871 262.82 108.973 267.834 108.973 267.834" stroke="#263238" stroke-linecap="round" stroke-linejoin="round"></path> <path d="M152.801 258.655L155.887 258.155" stroke="#263238" stroke-linecap="round" stroke-linejoin="round"></path> <path d="M113.162 269.051L111.523 268.683" stroke="#263238" stroke-linecap="round" stroke-linejoin="round"></path> <path d="M91.592 257.148C92.4549 258.142 92.9542 259.4 93.008 260.715C93.0618 262.03 92.6669 263.325 91.8881 264.386C91.1672 263.328 90.7573 262.089 90.7049 260.809C90.6526 259.53 90.9599 258.262 91.592 257.148Z" fill="#263238"></path> <path opacity="0.3" d="M91.592 257.148C92.4549 258.142 92.9542 259.4 93.008 260.715C93.0618 262.03 92.6669 263.325 91.8881 264.386C91.1672 263.328 90.7573 262.089 90.7049 260.809C90.6526 259.53 90.9599 258.262 91.592 257.148Z" fill="white" fill-opacity="0.7"></path> <path d="M91.592 257.148C92.4549 258.142 92.9542 259.4 93.008 260.715C93.0618 262.03 92.6669 263.325 91.8881 264.386C91.1672 263.328 90.7573 262.089 90.7049 260.809C90.6526 259.53 90.9599 258.262 91.592 257.148Z" stroke="#263238" stroke-linecap="round" stroke-linejoin="round"></path> <path d="M181.656 266.768L223.735 268.492L219.636 282.974L167.871 281L181.656 266.768Z" fill="white"></path> <path opacity="0.4" d="M181.656 266.768L223.735 268.492L219.636 282.974L167.871 281L181.656 266.768Z" fill="#0083FC"></path> <path d="M181.656 266.768L223.735 268.492L219.636 282.974L167.871 281L181.656 266.768Z" stroke="#263238" stroke-linecap="round" stroke-linejoin="round"></path> </svg> 