<?xml version="1.0" encoding="UTF-8"?> <svg xmlns="http://www.w3.org/2000/svg" width="1672" height="1672" viewBox="0 0 1672 1672" fill="none"> <path d="M1340.95 577.643C1332.05 558.849 1332.12 535.074 1326.44 515.645C1309.72 458.095 1264.14 412.282 1207.89 388.573C1072.53 331.725 1041.29 445.421 898.972 468.829C756.651 492.237 704.585 395.261 544.942 432.045C385.3 468.829 423.455 565.805 426.899 646.262C430.344 726.718 256.823 746.582 225.59 843.758C194.357 940.935 301.967 980.862 288.056 1051.09C274.145 1121.31 177.002 1161.44 204.757 1225.14C232.513 1288.84 256.823 1302.05 454.688 1251.89C652.552 1201.73 905.927 1178.33 1090.05 1215.11C1274.17 1251.89 1405.92 1328.81 1454.54 1305.4C1502.6 1282.22 1477.22 1163.44 1469.96 1126.59C1454.01 1045.6 1387.83 977.017 1388.97 894.955C1389.67 841.451 1443.11 817.006 1447.05 762.499C1450.63 713.041 1422.34 668.466 1390.91 631.816C1376.76 615.33 1354.69 600.549 1343.72 582.157C1342.72 580.92 1341.88 579.315 1340.95 577.643Z" fill="#0083FC"></path> <path opacity="0.9" d="M1340.95 577.643C1332.05 558.849 1332.12 535.074 1326.44 515.645C1309.72 458.095 1264.14 412.282 1207.89 388.573C1072.53 331.725 1041.29 445.421 898.972 468.829C756.651 492.237 704.585 395.261 544.942 432.045C385.3 468.829 423.455 565.805 426.899 646.262C430.344 726.718 256.823 746.582 225.59 843.758C194.357 940.935 301.967 980.862 288.056 1051.09C274.145 1121.31 177.002 1161.44 204.757 1225.14C232.513 1288.84 256.823 1302.05 454.688 1251.89C652.552 1201.73 905.927 1178.33 1090.05 1215.11C1274.17 1251.89 1405.92 1328.81 1454.54 1305.4C1502.6 1282.22 1477.22 1163.44 1469.96 1126.59C1454.01 1045.6 1387.83 977.017 1388.97 894.955C1389.67 841.451 1443.11 817.006 1447.05 762.499C1450.63 713.041 1422.34 668.466 1390.91 631.816C1376.76 615.33 1354.69 600.549 1343.72 582.157C1342.72 580.92 1341.88 579.315 1340.95 577.643Z" fill="white"></path> <path d="M302.031 556.843L591.254 773.601L581.055 1186.85" stroke="#263238" stroke-linecap="round" stroke-linejoin="round"></path> <path d="M527.889 790.154L505.25 1202.87" stroke="#263238" stroke-linecap="round" stroke-linejoin="round"></path> <path d="M530.893 735.145L529.188 766.445" stroke="#263238" stroke-linecap="round" stroke-linejoin="round"></path> <path d="M418.269 972.034L389.344 1219.02" stroke="#263238" stroke-linecap="round" stroke-linejoin="round"></path> <path d="M453.412 669.603L420.875 949.729" stroke="#263238" stroke-linecap="round" stroke-linejoin="round"></path> <path d="M338.452 656.327L228 1242.66" stroke="#263238" stroke-linecap="round" stroke-linejoin="round"></path> <path d="M350.062 594.63L340.766 643.887" stroke="#263238" stroke-linecap="round" stroke-linejoin="round"></path> <path d="M277.25 605.097L324.701 634.424" stroke="#263238" stroke-linecap="round" stroke-linejoin="round"></path> <path d="M430.972 700.067L357.203 654.488" stroke="#263238" stroke-linecap="round" stroke-linejoin="round"></path> <path d="M515.053 752.032L462.953 719.83" stroke="#263238" stroke-linecap="round" stroke-linejoin="round"></path> <path d="M581.6 793.13L538.797 766.679" stroke="#263238" stroke-linecap="round" stroke-linejoin="round"></path> <path d="M319.756 655.123L259.062 619.51" stroke="#263238" stroke-linecap="round" stroke-linejoin="round"></path> <path d="M428.036 718.625L353.766 675.053" stroke="#263238" stroke-linecap="round" stroke-linejoin="round"></path> <path d="M516.455 770.491L464.656 740.094" stroke="#263238" stroke-linecap="round" stroke-linejoin="round"></path> <path d="M578.677 807.008L536.844 782.463" stroke="#263238" stroke-linecap="round" stroke-linejoin="round"></path> <path d="M314.511 685.453L269.734 662.212" stroke="#263238" stroke-linecap="round" stroke-linejoin="round"></path> <path d="M424.626 742.602L352.797 705.316" stroke="#263238" stroke-linecap="round" stroke-linejoin="round"></path> <path d="M516.716 790.388L461.172 761.562" stroke="#263238" stroke-linecap="round" stroke-linejoin="round"></path> <path d="M578.422 822.424L535.719 800.253" stroke="#263238" stroke-linecap="round" stroke-linejoin="round"></path> <path d="M307.689 713.442L275.453 698.996" stroke="#263238" stroke-linecap="round" stroke-linejoin="round"></path> <path d="M423.965 765.676L344.578 730.029" stroke="#263238" stroke-linecap="round" stroke-linejoin="round"></path> <path d="M513.402 805.837L458.359 781.125" stroke="#263238" stroke-linecap="round" stroke-linejoin="round"></path> <path d="M578.452 835.03L536.484 816.204" stroke="#263238" stroke-linecap="round" stroke-linejoin="round"></path> <path d="M228.667 1145.82L138.312 1147.23" stroke="#263238" stroke-linecap="round" stroke-linejoin="round"></path> <path d="M378.777 1143.48L268.859 1145.19" stroke="#263238" stroke-linecap="round" stroke-linejoin="round"></path> <path d="M496.783 1141.61L414.922 1142.91" stroke="#263238" stroke-linecap="round" stroke-linejoin="round"></path> <path d="M571.823 1140.44L523.234 1141.21" stroke="#263238" stroke-linecap="round" stroke-linejoin="round"></path> <path d="M220.04 1172.04L143.562 1175.58" stroke="#263238" stroke-linecap="round" stroke-linejoin="round"></path> <path d="M374.896 1164.85L263.641 1170" stroke="#263238" stroke-linecap="round" stroke-linejoin="round"></path> <path d="M494.822 1159.26L415.469 1162.98" stroke="#263238" stroke-linecap="round" stroke-linejoin="round"></path> <path d="M570.191 1155.79L521.469 1158.06" stroke="#263238" stroke-linecap="round" stroke-linejoin="round"></path> <path d="M212.89 1202.77L152.531 1208.32" stroke="#263238" stroke-linecap="round" stroke-linejoin="round"></path> <path d="M372.657 1188.12L256.219 1198.82" stroke="#263238" stroke-linecap="round" stroke-linejoin="round"></path> <path d="M493.037 1177.09L414.219 1184.31" stroke="#263238" stroke-linecap="round" stroke-linejoin="round"></path> <path d="M571.434 1169.9L520.672 1174.55" stroke="#263238" stroke-linecap="round" stroke-linejoin="round"></path> <path d="M207.172 1230.66L157.781 1236.68" stroke="#263238" stroke-linecap="round" stroke-linejoin="round"></path> <path d="M367.108 1211.23L249.031 1225.58" stroke="#263238" stroke-linecap="round" stroke-linejoin="round"></path> <path d="M491.131 1196.15L409.438 1206.08" stroke="#263238" stroke-linecap="round" stroke-linejoin="round"></path> <path d="M569.618 1186.62L523.203 1192.27" stroke="#263238" stroke-linecap="round" stroke-linejoin="round"></path> <path d="M403.964 790.421L425.734 799.216L419.915 862.451L394.969 856.131L403.964 790.421Z" stroke="#263238" stroke-linecap="round" stroke-linejoin="round"></path> <path d="M490.141 880.308L494.923 827.072L511.241 833.659L508.332 884.923L490.141 880.308Z" stroke="#263238" stroke-linecap="round" stroke-linejoin="round"></path> <path d="M269.357 736.182L302.53 749.558L289.154 829.279L255.312 820.685L269.357 736.182Z" stroke="#263238" stroke-linecap="round" stroke-linejoin="round"></path> <path d="M561.098 853.757L577.116 860.211L576.748 902.278L561.031 898.299L561.098 853.757Z" stroke="#263238" stroke-linecap="round" stroke-linejoin="round"></path> <path d="M1369.97 556.843L1080.75 773.601L1090.95 1186.85" stroke="#263238" stroke-linecap="round" stroke-linejoin="round"></path> <path d="M1144.12 790.154L1166.76 1202.87" stroke="#263238" stroke-linecap="round" stroke-linejoin="round"></path> <path d="M1141.11 735.145L1142.81 766.445" stroke="#263238" stroke-linecap="round" stroke-linejoin="round"></path> <path d="M1253.73 972.034L1282.66 1219.02" stroke="#263238" stroke-linecap="round" stroke-linejoin="round"></path> <path d="M1218.59 669.603L1251.13 949.729" stroke="#263238" stroke-linecap="round" stroke-linejoin="round"></path> <path d="M1333.56 656.327L1444.01 1242.66" stroke="#263238" stroke-linecap="round" stroke-linejoin="round"></path> <path d="M1321.95 594.63L1331.25 643.887" stroke="#263238" stroke-linecap="round" stroke-linejoin="round"></path> <path d="M1347.3 634.424L1394.75 605.097" stroke="#263238" stroke-linecap="round" stroke-linejoin="round"></path> <path d="M1241.03 700.067L1314.8 654.488" stroke="#263238" stroke-linecap="round" stroke-linejoin="round"></path> <path d="M1156.97 752.032L1209.07 719.83" stroke="#263238" stroke-linecap="round" stroke-linejoin="round"></path> <path d="M1090.42 793.13L1133.22 766.679" stroke="#263238" stroke-linecap="round" stroke-linejoin="round"></path> <path d="M1352.25 655.123L1412.94 619.51" stroke="#263238" stroke-linecap="round" stroke-linejoin="round"></path> <path d="M1243.97 718.625L1318.24 675.053" stroke="#263238" stroke-linecap="round" stroke-linejoin="round"></path> <path d="M1155.56 770.491L1207.36 740.094" stroke="#263238" stroke-linecap="round" stroke-linejoin="round"></path> <path d="M1093.33 807.008L1135.16 782.463" stroke="#263238" stroke-linecap="round" stroke-linejoin="round"></path> <path d="M1357.5 685.453L1402.28 662.212" stroke="#263238" stroke-linecap="round" stroke-linejoin="round"></path> <path d="M1247.39 742.602L1319.22 705.316" stroke="#263238" stroke-linecap="round" stroke-linejoin="round"></path> <path d="M1155.3 790.388L1210.84 761.562" stroke="#263238" stroke-linecap="round" stroke-linejoin="round"></path> <path d="M1093.59 822.424L1136.3 800.253" stroke="#263238" stroke-linecap="round" stroke-linejoin="round"></path> <path d="M1364.33 713.442L1396.56 698.996" stroke="#263238" stroke-linecap="round" stroke-linejoin="round"></path> <path d="M1248.05 765.676L1327.43 730.029" stroke="#263238" stroke-linecap="round" stroke-linejoin="round"></path> <path d="M1158.59 805.837L1213.64 781.125" stroke="#263238" stroke-linecap="round" stroke-linejoin="round"></path> <path d="M1093.56 835.03L1135.53 816.204" stroke="#263238" stroke-linecap="round" stroke-linejoin="round"></path> <path d="M1443.34 1145.82L1533.7 1147.23" stroke="#263238" stroke-linecap="round" stroke-linejoin="round"></path> <path d="M1293.23 1143.48L1403.15 1145.19" stroke="#263238" stroke-linecap="round" stroke-linejoin="round"></path> <path d="M1175.22 1141.61L1257.08 1142.91" stroke="#263238" stroke-linecap="round" stroke-linejoin="round"></path> <path d="M1100.19 1140.44L1148.78 1141.21" stroke="#263238" stroke-linecap="round" stroke-linejoin="round"></path> <path d="M1451.97 1172.04L1528.45 1175.58" stroke="#263238" stroke-linecap="round" stroke-linejoin="round"></path> <path d="M1297.11 1164.85L1408.36 1170" stroke="#263238" stroke-linecap="round" stroke-linejoin="round"></path> <path d="M1177.19 1159.26L1256.54 1162.98" stroke="#263238" stroke-linecap="round" stroke-linejoin="round"></path> <path d="M1101.81 1155.79L1150.53 1158.06" stroke="#263238" stroke-linecap="round" stroke-linejoin="round"></path> <path d="M1459.12 1202.77L1519.48 1208.32" stroke="#263238" stroke-linecap="round" stroke-linejoin="round"></path> <path d="M1299.34 1188.12L1415.78 1198.82" stroke="#263238" stroke-linecap="round" stroke-linejoin="round"></path> <path d="M1178.97 1177.09L1257.79 1184.31" stroke="#263238" stroke-linecap="round" stroke-linejoin="round"></path> <path d="M1100.58 1169.9L1151.34 1174.55" stroke="#263238" stroke-linecap="round" stroke-linejoin="round"></path> <path d="M1464.84 1230.66L1514.23 1236.68" stroke="#263238" stroke-linecap="round" stroke-linejoin="round"></path> <path d="M1304.91 1211.23L1422.98 1225.58" stroke="#263238" stroke-linecap="round" stroke-linejoin="round"></path> <path d="M1180.88 1196.15L1262.57 1206.08" stroke="#263238" stroke-linecap="round" stroke-linejoin="round"></path> <path d="M1102.39 1186.62L1148.81 1192.27" stroke="#263238" stroke-linecap="round" stroke-linejoin="round"></path> <path d="M1268.05 790.421L1246.28 799.216L1252.1 862.451L1277.05 856.131L1268.05 790.421Z" stroke="#263238" stroke-linecap="round" stroke-linejoin="round"></path> <path d="M1181.88 880.308L1177.1 827.072L1160.78 833.659L1163.69 884.923L1181.88 880.308Z" stroke="#263238" stroke-linecap="round" stroke-linejoin="round"></path> <path d="M1402.64 736.182L1369.47 749.558L1382.84 829.279L1416.69 820.685L1402.64 736.182Z" stroke="#263238" stroke-linecap="round" stroke-linejoin="round"></path> <path d="M1110.91 853.757L1094.89 860.211L1095.26 902.278L1110.98 898.299L1110.91 853.757Z" stroke="#263238" stroke-linecap="round" stroke-linejoin="round"></path> <path d="M314.344 1260.69C393.128 1246.17 499.133 1226.65 579.724 1211.67" stroke="#263238" stroke-linecap="round" stroke-linejoin="round"></path> <path d="M204.359 1280.75L286.455 1265.67" stroke="#263238" stroke-linecap="round" stroke-linejoin="round"></path> <path d="M1407.23 1270.72C1323.1 1250.66 1185.93 1218.72 1090.89 1201.06" stroke="#263238" stroke-linecap="round" stroke-linejoin="round"></path> <path d="M1494.33 1288.84C1494.33 1288.84 1474.7 1284.1 1443.23 1276.4" stroke="#263238" stroke-linecap="round" stroke-linejoin="round"></path> <path d="M526.487 727.119L545.113 516.782L406.672 362.389" stroke="#263238" stroke-linecap="round" stroke-linejoin="round"></path> <path d="M1114.82 748.421L1104.19 519.457L1271.89 362.389" stroke="#263238" stroke-linecap="round" stroke-linejoin="round"></path> <path d="M730.156 1336.5C730.156 1336.5 678.29 1345.76 641.239 1360.61C604.187 1375.45 741.291 1373.58 711.63 1379.13C681.969 1384.68 591.246 1397.66 626.392 1418.02C661.537 1438.39 930.261 1442.13 1008.08 1423.61C1085.89 1405.08 870.972 1360.61 909.896 1343.92C948.82 1327.23 989.55 1343.92 987.711 1321.68C985.872 1299.44 911.835 1272.53 899.764 1273.03C887.692 1273.53 965.473 1305.03 920.998 1314.29C876.523 1323.56 789.445 1314.19 730.156 1336.5Z" fill="#0083FC"></path> <path opacity="0.6" d="M730.156 1336.5C730.156 1336.5 678.29 1345.76 641.239 1360.61C604.187 1375.45 741.291 1373.58 711.63 1379.13C681.969 1384.68 591.246 1397.66 626.392 1418.02C661.537 1438.39 930.261 1442.13 1008.08 1423.61C1085.89 1405.08 870.972 1360.61 909.896 1343.92C948.82 1327.23 989.55 1343.92 987.711 1321.68C985.872 1299.44 911.835 1272.53 899.764 1273.03C887.692 1273.53 965.473 1305.03 920.998 1314.29C876.523 1323.56 789.445 1314.19 730.156 1336.5Z" fill="white"></path> <path d="M840.857 527.716C840.857 527.716 806.681 540.089 795.044 545.172C783.407 550.255 746.356 554.636 740.537 558.281C734.719 561.926 590.057 721.869 592.933 724.779C595.809 727.688 628.547 729.126 638.01 726.952C647.474 724.778 765.249 610.614 765.249 610.614C765.249 610.614 780.531 611.35 780.531 622.987C780.531 634.624 787.788 761.128 787.788 761.128L938.268 758.219L939.003 604.796C939.003 604.796 940.441 589.547 952.078 590.249C963.716 590.952 1088.08 635.36 1088.08 635.36L1123.59 604.796C1123.59 604.796 997.791 556.074 973.781 540.825C949.771 525.576 943.25 509.559 933.653 509.559C924.056 509.559 840.857 527.716 840.857 527.716Z" fill="white"></path> <g style="mix-blend-mode:multiply"> <path d="M1101.98 596.302L1093.48 605.464L1064.63 594.028L1071.31 583.996L1066.57 582.09L1059.88 592.122C1049.85 588.109 1040.11 584.197 1031.92 580.853L1037.64 570.219L1032.99 568.279L1027.27 578.947C1018.65 575.603 1012.33 572.794 1010.25 571.757C1007.48 570.352 1002.39 567.744 996.275 564.5L998.214 553.131L993.499 550.957L991.593 562.026C981.996 556.876 970.727 550.723 961.497 545.306L960.46 530.726C958.521 529.054 956.749 527.382 955.077 525.877L956.247 542.229C951.939 539.811 947.805 537.096 943.874 534.104C934.344 525.911 932.973 525.911 932.137 525.911V526.379C930.599 517.751 929.595 511.766 929.562 511.565L924.613 512.401C924.613 513.137 925.683 518.855 927.121 526.914L915.45 529.322V512.368L910.434 513.304V530.358L888.029 534.973V517.785L883.047 518.821V536.01L858.268 541.126L857.432 524.172L852.483 525.242L853.319 542.163L817.538 549.553L815.498 537.113L810.716 538.919L812.622 550.589L797.775 553.632L796.404 544.604L795.166 545.139C794.008 545.633 792.825 546.068 791.622 546.443L792.859 554.669L766.91 560.019L765.606 552.261L760.69 553.198L761.994 561.056L745.675 564.4L743.1 557.211C742.25 557.463 741.432 557.811 740.659 558.247C739.971 558.753 739.333 559.325 738.753 559.953L740.826 565.704L723.839 585.568L720.06 579.615L716.716 583.427L720.595 589.58L689.195 626.364L682.975 620.412L679.631 624.124L685.951 630.177L662.042 658.132L654.284 652.381L650.94 656.126L658.798 661.945L630.541 695.017L621.412 689.7L618.068 693.579L627.231 698.896L603.188 727.019C605.094 727.219 607.167 727.42 609.34 727.554L631.645 701.437L639.069 705.751L618.503 727.955C620.81 727.955 623.118 727.955 625.191 727.955L643.416 708.292L651.107 712.74L637.096 727.119L638.199 726.918C640.975 726.283 653.047 716.017 668.73 701.838L687.088 683.012L688.292 683.915L692.004 680.571L690.6 679.501L713.105 656.393L715.379 658.601L719.057 655.257L716.616 652.916L743.368 625.595L745.976 629.708L749.655 626.164L746.946 621.883L757.279 611.283L759.285 616.867L763.265 613.055L761.426 607.939L769.618 606.401L770.488 611.684C772.438 612.205 774.291 613.041 775.972 614.159L774.567 605.464L800.015 600.683L803.694 624.96L780.654 628.672C780.654 630.143 780.654 631.849 780.888 633.721L804.128 629.742L807.272 650.575L782.493 655.424L781.69 650.575C782.359 663.951 783.262 680.102 784.131 696.12L788.345 721.635L785.603 722.705C785.603 724.511 785.803 726.25 785.904 727.955L789.248 726.651L794.899 760.927H799.982L794.063 725.012C802.022 722.137 809.88 719.695 817.471 717.656L823.958 760.459H829.041L822.353 716.519C827.938 715.114 833.422 713.944 838.873 712.974L846.53 760.124H851.58L843.788 712.205C849.774 711.235 855.66 710.499 861.411 709.931L863.719 756.747L860.375 760.091H867.598L868.868 758.854L866.461 709.797C872.346 709.362 878.098 709.128 883.749 709.061L883.983 759.79H888.999L888.765 709.162C895.955 709.162 902.91 709.597 909.665 710.198L909.565 758.787H914.581L914.748 710.198C923.108 711.135 931.067 712.394 938.624 713.977V708.928C931.033 707.423 923.074 706.152 914.748 705.249V674.585C922.747 674.846 930.727 675.516 938.658 676.591V671.575C930.726 670.522 922.746 669.875 914.748 669.636V634.457L938.724 629.675V624.559L914.748 629.341V610.882L938.724 606.769V604.963C938.862 603.833 939.086 602.715 939.393 601.619L914.748 605.832V579.08L936.283 575.034C937.448 580.197 938.911 585.289 940.664 590.283L945.346 588.51C943.819 584.185 942.546 579.775 941.533 575.302L958.889 586.203L959.725 591.888C961.263 592.289 963.069 592.791 964.841 593.359L964.54 589.179L977.314 597.205C983.267 599.111 989.954 601.318 997.01 603.659L990.322 599.445L992.128 589.045C999.385 592.724 1007.34 596.703 1015.54 600.783L1011.42 608.608L1016.24 610.246L1020.08 603.057C1028.08 607.003 1036.34 611.015 1044.43 614.961L1041.69 619.008L1046.6 620.713L1049.01 617.168C1057.14 621.114 1065.09 624.926 1072.42 628.438L1071.48 629.441L1076.63 631.28L1077.13 630.712L1083.22 633.621L1088 635.326L1091.75 631.982L1080.68 626.732L1094.86 611.25L1109.27 616.934L1113.58 613.256L1098.5 607.27L1106.93 598.108L1101.98 596.302ZM883.114 579.749L860.241 584.029L859.304 564.902L883.013 559.484L883.114 579.749ZM883.114 541.159V554.368L859.171 559.785L858.502 546.242L883.114 541.159ZM858.268 645.392L859.605 672.612C852.249 673.615 844.992 674.819 838.003 675.956L833.79 650.107L858.268 645.392ZM858 640.342L832.987 645.392L829.643 625.328L856.964 620.646L858 640.342ZM856.796 615.463L828.907 620.245L824.895 595.633L855.526 589.881L856.796 615.463ZM828.071 646.295L812.221 649.438L809.078 628.739L824.761 626.03L828.071 646.295ZM855.258 584.832L824.092 590.684L821.283 573.395L854.355 565.871L855.258 584.832ZM853.419 547.145L854.088 560.789L820.648 568.446L818.374 554.402L853.419 547.145ZM762.663 565.905L765.171 581.053L754.136 583.561L753.5 581.689L752.263 583.026L747.247 569.082L762.663 565.905ZM742.599 571.055L748.384 587.173L734.373 602.321L726.481 589.915L742.599 571.055ZM723.103 593.894L730.861 606.133L701.234 638.102L692.506 629.708L723.103 593.894ZM689.229 633.521L697.89 642.048L674.247 667.562L665.787 661.276L689.229 633.521ZM642.245 701.838L634.621 697.424L662.477 664.82L670.803 670.973L642.245 701.838ZM654.484 708.928L646.693 704.413L674.849 673.983L682.775 679.868L654.484 708.928ZM686.319 676.257L678.26 670.305L701.468 645.225L709.259 652.715L686.319 676.257ZM712.737 649.104L704.878 641.546L733.637 610.514L740.325 620.88L712.737 649.104ZM743.836 617.202L737.148 606.702L750.29 592.49L755.038 605.699L743.836 617.202ZM760.556 602.589L755.741 588.544L766.007 586.203L768.515 601.284L760.556 602.589ZM767.578 565.136L793.494 559.785L795.702 574.365L770.053 580.184L767.578 565.136ZM773.397 600.448L770.889 585.133L796.437 579.314L798.945 595.667L773.397 600.448ZM798.41 558.782L813.291 555.706L815.598 569.817L800.584 573.161L798.41 558.782ZM803.861 594.73L801.353 578.211L816.401 574.867L819.277 591.888L803.861 594.73ZM804.63 599.679L819.979 596.803L823.958 621.348L808.308 624.024L804.63 599.679ZM787.91 688.496L783.329 660.573L808.041 655.658L812.054 682.009C803.359 684.015 795.233 686.222 787.91 688.362V688.496ZM793.127 720.063L788.746 693.311C796.036 691.171 804.128 688.964 812.789 686.824L816.702 712.64C808.977 714.679 801.119 717.087 793.127 719.929V720.063ZM816.936 680.838L812.957 654.688L828.874 651.344L833.054 677.193C827.536 678.33 822.153 679.501 816.936 680.704V680.838ZM821.584 711.536L817.672 685.787C822.888 684.55 828.306 683.38 833.857 682.243L838.037 707.991C832.653 708.928 827.169 710.031 821.584 711.402V711.536ZM842.986 707.155L838.806 681.306C845.494 680.002 852.683 678.832 859.839 677.962L861.177 704.948C855.225 705.372 849.161 706.063 842.986 707.022V707.155ZM860.508 589.213L883.147 584.966V611.183L861.679 614.861L860.508 589.213ZM862.013 619.911L883.281 616.266V635.56L862.883 639.607L862.013 619.911ZM863.217 644.689L883.281 640.677V670.338C876.894 670.806 870.574 671.408 864.32 672.211L863.217 644.689ZM866.16 704.413L864.822 677.16C871.02 676.379 877.262 675.755 883.548 675.287V703.678C877.964 703.611 872.145 703.845 866.093 704.28L866.16 704.413ZM909.632 704.714C902.944 704.112 895.888 703.745 888.698 703.678V674.953C895.754 674.551 902.843 674.351 909.899 674.451L909.632 704.714ZM909.632 669.502C902.576 669.502 895.486 669.502 888.431 670.004L888.263 639.674L909.899 635.36L909.632 669.502ZM909.799 630.277L888.263 634.557V615.43L909.966 611.684L909.799 630.277ZM909.799 606.601L888.029 610.347V584.029L909.999 579.916L909.799 606.601ZM909.799 574.8L887.795 578.947V558.481L909.999 553.432L909.799 574.8ZM909.799 548.282L887.561 553.331V540.256L909.933 535.642L909.799 548.282ZM914.882 534.605L927.489 531.997C928.157 535.675 928.893 539.655 929.662 543.768L914.848 547.112L914.882 534.605ZM914.715 573.864V552.295L930.532 548.683C931.936 555.906 933.474 563.33 935.013 570.051L914.715 573.864ZM934.779 542.597H934.511C933.809 538.952 933.14 535.374 932.538 532.064C933.909 533 936.183 534.772 940.029 538.049C945.134 541.88 950.497 545.355 956.08 548.449L957.183 563.531C946.917 554.101 937.286 543.467 937.119 543.467L935.247 545.139L934.779 542.597ZM941.734 569.349L940.497 571.255C938.925 564.567 937.32 556.742 935.815 549.118C939.728 553.365 948.121 562.16 956.414 569.55L957.685 570.52L958.32 579.783L941.734 569.349ZM985.206 596.67L963.604 583.093L962.935 573.864C968.486 577.208 976.879 581.588 986.911 586.738L985.206 596.67ZM987.781 581.588C976.144 575.569 967.115 570.687 962.5 567.744L961.33 551.359C970.693 556.709 981.394 562.494 990.255 567.209L987.781 581.588ZM1017.44 596.469C1008.45 592.055 1000.02 587.808 992.463 583.963L994.904 569.684C1000.69 572.727 1005.3 575.101 1007.54 576.372C1009.78 577.642 1015.9 580.05 1024.43 583.528L1017.44 596.469ZM1046.77 610.815C1038.34 606.735 1030.05 602.655 1021.92 598.676L1029.08 585.3L1056.53 596.369L1046.77 610.815ZM1075.49 624.626L1051.32 613.022L1061.35 598.275L1089.47 609.444L1075.49 624.626Z" fill="#0083FC"></path> </g> <path d="M840.857 527.716C840.857 527.716 806.681 540.089 795.044 545.172C783.407 550.255 746.356 554.636 740.537 558.281C734.719 561.926 590.057 721.869 592.933 724.779C595.809 727.688 628.547 729.126 638.01 726.952C647.474 724.778 765.249 610.614 765.249 610.614C765.249 610.614 780.531 611.35 780.531 622.987C780.531 634.624 787.788 761.128 787.788 761.128L938.268 758.219L939.003 604.796C939.003 604.796 940.441 589.547 952.078 590.249C963.716 590.952 1088.08 635.36 1088.08 635.36L1123.59 604.796C1123.59 604.796 997.791 556.074 973.781 540.825C949.771 525.576 943.25 509.559 933.653 509.559C924.056 509.559 840.857 527.716 840.857 527.716Z" stroke="#263238" stroke-miterlimit="10"></path> <path d="M865.062 668.8C867.203 688.061 867.771 725.648 867.771 725.648" stroke="#263238" stroke-miterlimit="10"></path> <path d="M863.517 658.768C860.173 636.396 853.953 557.712 853.953 557.712" stroke="#263238" stroke-miterlimit="10"></path> <path d="M947.391 590.216L984.877 579.147" stroke="#263238" stroke-linecap="round" stroke-linejoin="round"></path> <path d="M989.953 577.442L1001.89 574.9" stroke="#263238" stroke-linecap="round" stroke-linejoin="round"></path> <path d="M956.75 587.674H1005.31" stroke="#263238" stroke-linecap="round" stroke-linejoin="round"></path> <path d="M721.797 596.202L765.235 610.614L741.393 610.648" stroke="#263238" stroke-linecap="round" stroke-linejoin="round"></path> <path d="M733.741 611.517H722.672" stroke="#263238" stroke-linecap="round" stroke-linejoin="round"></path> <path d="M867.364 572.76C867.364 574.901 866.227 576.606 864.823 576.606C863.418 576.606 862.281 574.901 862.281 572.76C862.281 570.62 863.418 568.948 864.823 568.948C866.227 568.948 867.364 570.654 867.364 572.76Z" stroke="#263238" stroke-linecap="round" stroke-linejoin="round"></path> <path d="M871.648 614.059C871.648 616.165 870.477 617.904 869.073 617.904C867.668 617.904 866.531 616.165 866.531 614.059C866.531 611.952 867.668 610.247 869.073 610.247C870.477 610.247 871.648 611.952 871.648 614.059Z" stroke="#263238" stroke-linecap="round" stroke-linejoin="round"></path> <path d="M874.182 664.72C875.586 664.72 876.724 662.998 876.724 660.874C876.724 658.751 875.586 657.029 874.182 657.029C872.779 657.029 871.641 658.751 871.641 660.874C871.641 662.998 872.779 664.72 874.182 664.72Z" stroke="#263238" stroke-linecap="round" stroke-linejoin="round"></path> <path d="M877.601 705.149C877.601 707.256 876.464 708.995 875.059 708.995C873.655 708.995 872.484 707.256 872.484 705.149C872.484 703.042 873.621 701.337 875.059 701.337C876.497 701.337 877.601 703.042 877.601 705.149Z" stroke="#263238" stroke-linecap="round" stroke-linejoin="round"></path> <path d="M824.93 520.861L820.984 523.47C817.196 526.021 814.095 529.467 811.955 533.502L803.094 550.055L826.502 570.319L845.128 543.567L879.939 566.206L892.847 537.046L884.654 525.242C883.134 523.065 881.141 521.26 878.825 519.963C876.508 518.666 873.928 517.91 871.278 517.751C856.999 516.715 828.542 515.444 824.93 520.861Z" fill="white" stroke="#263238" stroke-miterlimit="10"></path> <path d="M821.219 498.657C821.219 498.657 822.69 537.18 827.037 538.785C831.385 540.39 843.757 549.687 851.047 549.687C858.337 549.687 868.503 535.14 869.205 532.967C869.908 530.793 866.296 493.675 866.296 493.675L824.128 498.055L821.219 498.657Z" fill="white"></path> <g style="mix-blend-mode:multiply" opacity="0.5"> <path d="M866.296 493.541L824.128 497.921L821.219 498.657C821.219 498.657 821.687 511.13 822.924 522.065C831.521 523.748 840.298 524.321 849.041 523.771C855.736 523.501 862.353 522.228 868.67 519.992C867.767 508.622 866.296 493.541 866.296 493.541Z" fill="#0083FC"></path> </g> <path d="M821.219 498.657C821.219 498.657 822.69 537.18 827.037 538.785C831.385 540.39 843.757 549.687 851.047 549.687C858.337 549.687 868.503 535.14 869.205 532.967C869.908 530.793 866.296 493.675 866.296 493.675L824.128 498.055L821.219 498.657Z" stroke="#263238" stroke-miterlimit="10"></path> <path d="M789.179 436.124C789.179 436.124 781.187 419.404 769.55 426.092C757.913 432.78 774.666 454.449 784.832 459.532C794.998 464.615 799.379 463.88 799.379 463.88L789.179 436.124Z" fill="white" stroke="#263238" stroke-miterlimit="10"></path> <path d="M886.622 431.677C886.622 431.677 889.799 413.419 902.774 416.562C915.748 419.705 905.516 445.254 897.089 452.911C888.662 460.569 884.281 461.037 884.281 461.037L886.622 431.677Z" fill="white" stroke="#263238" stroke-miterlimit="10"></path> <path d="M785.607 432.479C785.607 432.479 785.875 433.349 786.41 434.887C789.52 444.183 800.856 477.858 805.236 488.391C810.319 500.764 829.949 514.575 856.132 510.227C882.316 505.88 889.572 475.316 889.572 463.679C889.572 452.042 883.753 361.888 883.753 361.888C883.753 361.888 852.487 329.886 826.906 319.72C801.324 309.554 789.085 321.158 779.655 338.613C770.225 356.069 765.108 366.235 768.018 377.872C770.927 389.509 785.607 432.479 785.607 432.479Z" fill="white"></path> <g style="mix-blend-mode:multiply" opacity="0.5"> <path d="M795.869 384.794C805.667 373.926 805.667 352.19 805.667 352.19C821.413 362.902 838.608 371.313 856.73 377.17C865.944 379.806 875.47 381.189 885.053 381.283C884.318 369.88 883.816 361.955 883.816 361.955C883.816 361.955 852.55 329.952 826.968 319.787C801.386 309.621 789.147 321.225 779.717 338.68C770.287 356.136 765.171 366.302 768.08 377.939C769.384 383.222 773.096 394.926 776.775 406.162C778.714 404.022 787.174 394.391 795.869 384.794Z" fill="#0083FC"></path> </g> <g style="mix-blend-mode:multiply" opacity="0.5"> <path d="M877.301 481.536C866.433 498.925 853.391 505.446 831.688 498.925C812.093 493.04 797.814 466.02 795.172 460.703C798.984 471.772 802.997 483.108 805.204 488.492C810.287 500.865 829.916 514.675 856.1 510.328C882.283 505.981 889.54 475.417 889.54 463.78C889.54 459.9 888.904 447.059 888.035 432.045" fill="#0083FC"></path> </g> <path d="M785.607 432.479C785.607 432.479 785.875 433.349 786.41 434.887C789.52 444.183 800.856 477.858 805.236 488.391C810.319 500.764 829.949 514.575 856.132 510.227C882.316 505.88 889.572 475.316 889.572 463.679C889.572 452.042 883.753 361.888 883.753 361.888C883.753 361.888 852.487 329.886 826.906 319.72C801.324 309.554 789.085 321.158 779.655 338.613C770.225 356.069 765.108 366.235 768.018 377.872C770.927 389.509 785.607 432.479 785.607 432.479Z" stroke="#263238" stroke-miterlimit="10"></path> <path d="M810.28 393.923C810.648 396.899 809.477 399.507 807.672 399.708C805.866 399.909 804.127 397.668 803.793 394.692C803.458 391.716 804.595 389.108 806.401 388.874C808.207 388.639 809.946 390.947 810.28 393.923Z" fill="#263238"></path> <path d="M861.179 388.105C861.547 391.114 860.376 393.689 858.57 393.89C856.765 394.09 855.059 391.85 854.691 388.874C854.323 385.898 855.527 383.289 857.3 383.089C859.072 382.888 860.844 385.128 861.179 388.105Z" fill="#263238"></path> <path d="M792.859 373.592C792.859 373.592 801.587 361.219 814.662 365.599" stroke="#263238" stroke-width="2" stroke-linecap="round" stroke-linejoin="round"></path> <path d="M839.406 432.48L846.663 425.223L841.58 395.395" stroke="#263238" stroke-linecap="round" stroke-linejoin="round"></path> <path d="M814.672 442.645C816.218 446.428 818.83 449.681 822.19 452.008C825.55 454.335 829.514 455.636 833.599 455.754" stroke="#263238" stroke-linecap="round" stroke-linejoin="round"></path> <path d="M797.242 332.126C797.242 332.126 805.97 348.846 800.151 358.309C794.333 367.773 784.134 369.947 779.786 375.029C775.439 380.112 776.877 404.858 779.786 411.379C782.267 418.252 784.212 425.306 785.605 432.479C785.605 432.479 767.414 400.477 762.197 391.047C756.98 381.617 744.006 348.846 755.509 330.855C767.012 312.865 779.519 326.475 783.866 316.309C788.213 306.143 789.685 285.778 826.034 275.579C862.383 265.38 880.574 285.611 885.657 297.415C890.74 309.22 909.065 318.482 922.742 314.837C936.419 311.193 927.123 306.845 927.123 306.845C927.123 306.845 943.107 306.845 939.462 329.384C935.817 351.922 916.221 366.469 888.567 367.205C860.912 367.94 816.871 360.483 797.242 332.126Z" fill="#263238" stroke="#263238" stroke-miterlimit="10"></path> <path d="M794.141 319.185C794.141 319.185 826.979 290.192 846.04 290.928C865.1 291.664 875.032 324.368 897.938 323.732" stroke="white" stroke-width="0.5" stroke-miterlimit="10"></path> <path d="M787.281 323.766L799.487 334.467C799.487 334.467 817.812 316.142 841.488 324.435C865.163 332.728 886.531 359.547 908.669 357.273C930.806 354.999 938.43 332.059 935.421 319.084" stroke="white" stroke-width="0.5" stroke-miterlimit="10"></path> <path d="M788.787 329.116C788.787 329.116 775.043 325.304 768.957 336.741C762.871 348.177 770.462 364.228 770.462 364.228" stroke="white" stroke-width="0.5" stroke-miterlimit="10"></path> <path d="M799.484 334.4C799.484 334.4 791.091 335.169 791.091 346.606C791.091 358.042 788.783 365.7 780.39 369.512C771.997 373.324 768.954 376.401 771.997 380.982" stroke="white" stroke-width="0.5" stroke-miterlimit="10"></path> <path d="M906.22 380.28C903.512 372.889 892.477 370.248 882.01 368.876C871.543 367.505 845.527 375.23 841.012 376.568C837.932 375.22 834.567 374.649 831.215 374.906C827.862 375.162 824.624 376.238 821.784 378.039C815.631 378.039 789.782 377.772 780.787 381.717C771.123 385.998 761.158 391.382 760.556 399.24C760.121 405.159 765.572 408.436 770.086 409.807C772.193 419.371 779.917 434.118 797.54 433.215C819.811 432.145 829.342 419.404 828.807 407.968C828.472 400.945 826.968 388.171 826.332 383.088C828.198 382.062 830.282 381.497 832.411 381.439C834.54 381.381 836.652 381.832 838.571 382.754C839.34 387.971 841.313 400.41 842.852 407.165C845.426 418.301 858.067 427.998 879.635 423.016C896.79 419.036 900.268 402.785 899.699 392.92C904.013 390.479 908.394 385.864 906.22 380.28ZM797.206 426.594C779.516 427.43 776.44 407.433 776.306 406.53C776.205 405.837 775.89 405.193 775.404 404.689C774.918 404.185 774.286 403.847 773.597 403.721C771.925 403.42 767.076 401.815 767.244 399.675C767.478 396.331 772.962 392.418 783.496 387.77C790.02 385.903 796.773 384.957 803.56 384.961C809.512 384.66 815.464 384.593 819.711 384.627C820.38 390.077 821.751 401.882 822.052 408.302C822.62 414.255 817.705 425.624 797.34 426.594H797.206ZM894.884 388.171C894.273 388.475 893.769 388.957 893.441 389.555C893.112 390.153 892.974 390.837 893.045 391.515C893.045 392.385 895.586 412.449 878.331 416.428C858.468 420.976 850.743 411.345 849.406 405.594C848.068 399.842 846.062 387.603 845.293 382.186C849.339 381.015 855.091 379.477 860.909 378.139C867.435 376.287 874.19 375.364 880.973 375.397C892.376 377.036 898.696 379.41 899.833 382.453C900.803 384.56 896.59 387.402 895.018 388.171H894.884Z" fill="#263238"></path> <path d="M676.25 1127.9L710.426 1189.09L717.782 1142.28C717.782 1142.28 689.593 1126.49 676.25 1127.9Z" fill="#0083FC" stroke="#263238" stroke-miterlimit="10"></path> <path d="M881.584 1155.22C881.584 1155.22 865.6 1163.95 860.484 1171.94C855.367 1179.93 847.408 1182.84 854.665 1193.01C863.434 1206.01 869.59 1220.59 872.789 1235.94C875.699 1251.22 887.336 1263.56 899.709 1273.03C912.081 1282.49 931.677 1284.66 933.851 1273.76C936.024 1262.86 909.139 1218.49 907.099 1210.49C905.182 1203.39 904.682 1195.99 905.627 1188.69C906.229 1180.67 893.957 1150.87 881.584 1155.22Z" fill="#263238" stroke="#263238" stroke-miterlimit="10"></path> <path d="M933.881 1274.06C931.106 1275.5 928.067 1276.35 924.95 1276.57C921.833 1276.79 918.704 1276.37 915.756 1275.33C895.391 1269.52 885.928 1245.54 875.628 1219.36C870.107 1205.51 862.654 1192.52 853.491 1180.77C851.184 1184.11 850.481 1187.45 854.528 1193.17C863.324 1206.11 869.525 1220.64 872.786 1235.94C875.695 1251.22 887.332 1263.56 899.705 1273.03C912.078 1282.49 931.507 1284.63 933.881 1274.06Z" fill="white" stroke="#263238" stroke-miterlimit="10"></path> <path d="M897.566 1141.41C897.566 1141.41 873.59 1156.69 872.854 1163.95C872.118 1171.2 878.673 1193.77 881.582 1197.39C884.491 1201 893.219 1185.01 896.128 1189.36L903.385 1200.3L906.294 1180.63L897.566 1141.41Z" fill="white" stroke="#263238" stroke-miterlimit="10"></path> <path d="M709.695 1138.06L701.703 1247.11L748.218 1311.12L751.863 1164.25L709.695 1138.06Z" fill="white"></path> <g style="mix-blend-mode:multiply" opacity="0.5"> <path d="M706.422 1182.77L715.752 1183.34C728.294 1184.51 740.394 1188.57 751.098 1195.21L751.867 1164.25L709.699 1138.06L706.422 1182.77Z" fill="#0083FC"></path> </g> <path d="M709.695 1138.06L701.703 1247.11L748.218 1311.12L751.863 1164.25L709.695 1138.06Z" stroke="#263238" stroke-miterlimit="10"></path> <path d="M750.158 1233.1C737.961 1220.55 721.748 1212.68 704.345 1210.86L701.703 1247.31L748.218 1311.28L750.158 1233.1Z" fill="white" stroke="#263238" stroke-miterlimit="10"></path> <path d="M749.057 1340.21C749.057 1340.21 752.702 1318.37 749.057 1303.12C745.412 1287.87 720.7 1246.28 696.69 1220.96C672.68 1195.65 639.273 1145.32 618.173 1124.99C597.072 1104.66 570.922 1109.71 570.922 1143.88C570.922 1178.06 591.989 1236.95 623.256 1268.21C654.522 1299.48 698.897 1334.26 710.4 1340.21C721.904 1346.16 735.146 1350.98 749.057 1340.21Z" fill="#263238" stroke="#263238" stroke-miterlimit="10"></path> <path d="M750.566 1320.88C740.629 1307.35 728.869 1295.25 715.622 1284.93C688.702 1263.13 668.337 1214.41 655.998 1183.88C648.34 1164.98 630.717 1140.84 618.345 1125.16V1124.99C597.244 1104.62 571.094 1109.71 571.094 1143.88C571.094 1178.06 592.161 1236.95 623.427 1268.21C654.694 1299.48 698.902 1334.26 710.405 1340.21C721.908 1346.16 735.151 1351.11 748.961 1340.21C749.93 1333.81 750.466 1327.35 750.566 1320.88Z" fill="white" stroke="#263238" stroke-miterlimit="10"></path> <path d="M749.459 1336.56C740.029 1322.08 722.172 1304.36 700.971 1284.93C666.796 1253.67 638.439 1158.43 612.991 1129.34C597.475 1111.61 582.259 1120.34 572.863 1129.87C571.541 1134.42 570.899 1139.14 570.957 1143.88C570.957 1178.06 592.024 1236.95 623.29 1268.21C654.557 1299.48 698.898 1334.26 710.401 1340.21C721.905 1346.16 735.147 1351.11 748.958 1340.21C749.058 1340.21 749.058 1338.84 749.459 1336.56Z" fill="white" stroke="#263238" stroke-miterlimit="10"></path> <path d="M773.226 841.116L781.954 748.788C781.954 748.788 846.66 730.597 878.662 734.242C901.621 737.363 924.266 742.464 946.345 749.491C946.345 749.491 958.718 870.209 973.097 929.097C987.476 987.985 994.164 1075.26 994.9 1107.97C995.636 1140.67 973.799 1152.31 967.981 1159.6C962.162 1166.89 925.111 1211.23 925.111 1211.23C925.111 1211.23 901.703 1196.68 894.546 1173.41C887.39 1150.14 891.637 1140.71 891.637 1140.71L946.345 1099.24C946.345 1099.24 923.806 966.182 906.217 936.353C888.628 906.525 875.686 894.921 856.793 889.838C837.899 884.755 837.163 886.929 813.153 902.913C798.009 913.169 783.888 924.86 770.986 937.825L753.296 1183.78C753.296 1183.78 726.544 1158.33 708.954 1146.69C698.471 1139.7 687.547 1133.39 676.25 1127.8C676.25 1127.8 705.61 907.093 720.157 894.821C734.703 882.548 773.226 841.116 773.226 841.116Z" fill="#0083FC"></path> <g style="mix-blend-mode:multiply" opacity="0.2"> <path d="M994.937 1111.35C986.644 1111.35 973.669 1111.98 965.376 1092.65C952.401 1062.39 940.898 974.508 920.7 931.271C900.502 888.033 860.174 850.546 838.572 850.546C816.969 850.546 865.959 882.247 865.959 882.247C865.959 882.247 847.199 873.62 842.885 873.62C838.572 873.62 785.235 902.445 767.946 912.511C750.658 922.576 753.534 931.271 747.882 957.187C742.967 979.257 740.158 1127.23 739.422 1171.2C747.481 1178.33 753.4 1183.94 753.4 1183.94L771.156 937.892C784.022 924.897 798.11 913.173 813.224 902.88C837.234 886.896 837.936 884.722 856.863 889.805C875.79 894.888 888.832 906.525 906.288 936.32C923.743 966.115 946.416 1099.21 946.416 1099.21L891.875 1140.67C891.875 1140.67 887.528 1150.1 894.784 1173.38C902.041 1196.65 925.348 1211.2 925.348 1211.2C925.348 1211.2 962.4 1166.82 968.218 1159.57C974.037 1152.31 994.134 1141.44 994.937 1111.35Z" fill="#263238"></path> </g> <path d="M773.226 841.116L781.954 748.788C781.954 748.788 846.66 730.597 878.662 734.242C901.621 737.363 924.266 742.464 946.345 749.491C946.345 749.491 958.718 870.209 973.097 929.097C987.476 987.985 994.164 1075.26 994.9 1107.97C995.636 1140.67 973.799 1152.31 967.981 1159.6C962.162 1166.89 925.111 1211.23 925.111 1211.23C925.111 1211.23 901.703 1196.68 894.546 1173.41C887.39 1150.14 891.637 1140.71 891.637 1140.71L946.345 1099.24C946.345 1099.24 923.806 966.182 906.217 936.353C888.628 906.525 875.686 894.921 856.793 889.838C837.899 884.755 837.163 886.929 813.153 902.913C798.009 913.169 783.888 924.86 770.986 937.825L753.296 1183.78C753.296 1183.78 726.544 1158.33 708.954 1146.69C698.471 1139.7 687.547 1133.39 676.25 1127.8C676.25 1127.8 705.61 907.093 720.157 894.821C734.703 882.548 773.226 841.116 773.226 841.116Z" stroke="#263238" stroke-miterlimit="10"></path> <path d="M946.359 1099.24C946.359 1099.24 950.907 1129.34 953.047 1133.88" stroke="#263238" stroke-miterlimit="10"></path> <path d="M866.53 741.766L860.578 833.693C865.1 832.636 869.228 830.316 872.483 827.005C876.73 821.888 881.01 781.861 881.01 781.861" stroke="#263238" stroke-linecap="round" stroke-linejoin="round"></path> <path d="M815.438 748.554L839.28 745.177L840.986 739.191" stroke="#263238" stroke-linecap="round" stroke-linejoin="round"></path> <path d="M890.37 740.061L888.665 745.177L875.891 744.308" stroke="#263238" stroke-linecap="round" stroke-linejoin="round"></path> <path d="M898.867 740.061L898.031 746.882L917.594 751.129" stroke="#263238" stroke-linecap="round" stroke-linejoin="round"></path> <path d="M783.969 836.268C783.969 836.268 802.695 834.562 822.258 858.371" stroke="#263238" stroke-linecap="round" stroke-linejoin="round"></path> <path d="M814.594 843.925C814.594 843.925 818.841 843.925 829.909 860.946" stroke="#263238" stroke-linecap="round" stroke-linejoin="round"></path> <path d="M771.791 648.435C771.791 648.435 783.394 638.403 787.775 633.889C792.156 629.374 793.593 618.606 798.676 625.161C803.759 631.715 803.759 639.707 800.148 641.881C796.536 644.054 787.775 648.569 785.601 651.344C783.428 654.12 765.972 655.691 771.791 648.435Z" fill="white" stroke="#263238" stroke-miterlimit="10"></path> <path d="M944.182 599.077C944.182 599.077 930.037 592.824 924.553 589.948C919.069 587.072 914.521 577.107 911.545 584.899C908.568 592.69 911.043 600.281 915.156 601.284C919.269 602.288 928.9 603.826 931.876 605.966C934.852 608.106 951.907 604.294 944.182 599.077Z" fill="white" stroke="#263238" stroke-miterlimit="10"></path> <path d="M779.781 549.553L782.691 653.518L795.766 750.226L808.138 748.053L792.856 650.609L792.121 546.644L779.781 549.553Z" fill="#263238" stroke="#263238" stroke-miterlimit="10"></path> <path d="M903.375 514.642C903.375 514.642 925.914 594.63 928.121 604.094C930.328 613.557 936.113 665.891 937.551 670.974C938.989 676.056 928.121 752.4 928.121 752.4L940.46 755.309L949.188 662.981L939.156 604.796L916.617 513.204L903.375 514.642Z" fill="#263238" stroke="#263238" stroke-miterlimit="10"></path> <path d="M805.372 730.497L799.955 725.715L794.203 734.576L795.775 750.226L808.148 748.053L805.372 730.497Z" fill="white" stroke="#263238" stroke-miterlimit="10"></path> <path d="M942.036 739.024L938.926 730.162L930.399 736.048C929.095 745.712 928.125 752.533 928.125 752.533L940.464 755.443L942.036 739.024Z" fill="white" stroke="#263238" stroke-miterlimit="10"></path> <path d="M851.747 553.198C851.747 553.198 811.051 529.79 809.58 537.214C808.108 544.637 810.315 582.291 814.662 580.685C819.01 579.08 852.483 560.387 852.483 560.387C852.483 560.387 895.387 584.33 896.122 572.693C896.858 561.056 894.651 530.526 884.485 529.79C874.319 529.054 851.747 553.198 851.747 553.198Z" fill="#263238" stroke="#263238" stroke-miterlimit="10"></path> <path d="M858.547 555.739L879.781 546.075" stroke="white" stroke-width="0.5" stroke-linecap="round" stroke-linejoin="round"></path> <path d="M858.547 555.739L877.842 560.254" stroke="white" stroke-width="0.5" stroke-linecap="round" stroke-linejoin="round"></path> <path d="M830.219 551.225L846.972 557.01L830.888 562.16" stroke="white" stroke-width="0.5" stroke-linecap="round" stroke-linejoin="round"></path> <path d="M857.268 550.589C857.268 550.589 858.539 558.949 857.268 560.889C855.998 562.828 850.815 562.16 848.875 559.585" stroke="white" stroke-width="0.5" stroke-linecap="round" stroke-linejoin="round"></path> <path d="M1013.74 641.312C1013.74 641.312 1002.34 636.497 1010.4 628.605C1018.46 620.713 1103.36 601.853 1119.45 602.154C1135.53 602.455 1144.53 614.125 1147.94 627.535C1151.35 640.944 1143.52 654.822 1126.6 661.644C1109.68 668.465 1037.28 678.096 1026.05 676.29C1014.81 674.485 1013.74 641.312 1013.74 641.312Z" fill="white"></path> <g style="mix-blend-mode:multiply"> <path d="M1148.2 628.17L1142.71 629.34C1141.71 623.422 1140.61 617.469 1139.37 611.584H1140C1137.97 609.225 1135.54 607.244 1132.81 605.732C1132.98 606.501 1133.22 607.303 1133.38 608.106L1107.93 614.56C1106.8 610.915 1105.46 607.437 1104.06 604.026L1099.01 604.862C1100.48 608.206 1101.85 611.985 1103.09 615.797L1069.11 624.458C1067.35 620.271 1065.32 616.205 1063.02 612.286L1057.81 613.523C1060.21 617.429 1062.31 621.509 1064.09 625.729L1037.34 632.417C1035.11 628.361 1032.48 624.541 1029.48 621.014C1027.71 621.549 1026.14 622.05 1024.47 622.586C1027.56 625.961 1030.27 629.661 1032.56 633.621L1028.25 634.691C1023.01 635.925 1018.07 638.199 1013.73 641.379C1013.73 641.914 1013.73 644.288 1014.2 647.565C1018.53 643.599 1023.78 640.792 1029.48 639.406L1034.94 638.035C1036.86 642.124 1038.34 646.406 1039.35 650.809L1015.34 655.825C1015.61 657.475 1015.94 659.113 1016.34 660.741L1040.29 655.758C1040.93 660.063 1041.18 664.416 1041.05 668.766L1020.69 672.11C1021.26 673.149 1022.05 674.057 1022.99 674.777C1023.94 675.496 1025.02 676.012 1026.17 676.29L1040.72 673.949C1040.72 674.652 1040.55 675.32 1040.49 676.023L1045.54 675.588C1045.54 674.785 1045.7 673.949 1045.77 673.147L1072.92 668.8V672.378L1078.14 671.642C1078.14 670.405 1078.14 669.168 1078.14 667.93L1108.6 663.048C1108.6 664.185 1108.4 665.322 1108.3 666.392L1113.55 665.456C1113.55 664.419 1113.75 663.382 1113.82 662.346L1131.54 659.47C1134.81 657.744 1137.82 655.559 1140.47 652.983L1114.02 657.229C1114.15 651.704 1113.94 646.176 1113.39 640.677L1138.67 635.393C1139.57 641.145 1140.3 646.863 1140.94 652.447C1142.61 650.745 1144.07 648.848 1145.29 646.796C1144.79 642.683 1144.22 638.57 1143.58 634.39L1148.9 633.286C1148.85 631.56 1148.62 629.844 1148.2 628.17ZM1039.65 636.898L1065.83 630.21C1067.52 634.858 1068.89 639.618 1069.91 644.455L1044.1 649.839C1043.06 645.386 1041.57 641.05 1039.65 636.898ZM1046.04 668.031C1046.11 663.552 1045.79 659.076 1045.07 654.655L1070.88 649.271C1071.73 654.007 1072.33 658.784 1072.69 663.583L1046.04 668.031ZM1070.85 629.006L1104.29 620.445C1105.75 625.751 1106.87 631.146 1107.63 636.597L1074.9 643.285C1073.85 638.444 1072.5 633.675 1070.85 629.006ZM1077.87 662.914C1077.5 658.038 1076.89 653.183 1076.03 648.368L1108.4 641.68C1108.91 647.104 1109.08 652.554 1108.9 657.999L1077.87 662.914ZM1112.68 635.594C1111.92 630.066 1110.8 624.593 1109.34 619.208L1134.52 612.821C1135.79 618.64 1136.9 624.48 1137.86 630.344L1112.68 635.594Z" fill="#0083FC"></path> </g> <path d="M1013.74 641.312C1013.74 641.312 1002.34 636.497 1010.4 628.605C1018.46 620.713 1103.36 601.853 1119.45 602.154C1135.53 602.455 1144.53 614.125 1147.94 627.535C1151.35 640.944 1143.52 654.822 1126.6 661.644C1109.68 668.465 1037.28 678.096 1026.05 676.29C1014.81 674.485 1013.74 641.312 1013.74 641.312Z" stroke="#263238" stroke-miterlimit="10"></path> <path d="M993.172 640.944L1001.33 671.91L1023.27 668.8C1025.22 663.237 1025.33 657.191 1023.57 651.562C1021.81 645.934 1018.28 641.025 1013.5 637.567L993.172 640.944Z" fill="white" stroke="#263238" stroke-miterlimit="10"></path> <path d="M993.169 640.944C993.169 640.944 956.753 597.472 951.904 598.977C947.055 600.482 918.698 602.321 915.12 605.866C911.542 609.41 918.765 619.977 918.765 619.977C917.395 624.218 916.465 628.588 915.989 633.019C915.989 637.634 922.677 642.349 922.677 642.349C922.439 646.353 922.675 650.372 923.38 654.32C924.45 657.664 926.289 658.768 926.924 661.008C927.56 663.249 926.49 671.81 932.442 673.749C937.679 675.856 943.404 676.447 948.961 675.455L956.586 673.08C956.586 673.08 973.774 676.826 980.93 675.354C988.086 673.883 1001.23 672.01 1001.23 672.01L993.169 640.944Z" fill="white"></path> <g style="mix-blend-mode:multiply" opacity="0.5"> <path d="M980.894 675.187C984.74 674.418 990.258 673.515 994.571 672.879C988.184 673.582 978.654 674.05 972.869 671.475C963.539 667.328 952.169 661.142 940.766 665.255C936.675 666.726 932.687 668.469 928.828 670.472C929.189 671.201 929.691 671.851 930.306 672.385C930.92 672.919 931.634 673.326 932.406 673.582C937.644 675.688 943.368 676.279 948.926 675.287L956.55 672.913C956.55 672.913 973.738 676.658 980.894 675.187Z" fill="#0083FC"></path> </g> <path d="M993.169 640.944C993.169 640.944 956.753 597.472 951.904 598.977C947.055 600.482 918.698 602.321 915.12 605.866C911.542 609.41 918.765 619.977 918.765 619.977C917.395 624.218 916.465 628.588 915.989 633.019C915.989 637.634 922.677 642.349 922.677 642.349C922.439 646.353 922.675 650.372 923.38 654.32C924.45 657.664 926.289 658.768 926.924 661.008C927.56 663.249 926.49 671.81 932.442 673.749C937.679 675.856 943.404 676.447 948.961 675.455L956.586 673.08C956.586 673.08 973.774 676.826 980.93 675.354C988.086 673.883 1001.23 672.01 1001.23 672.01L993.169 640.944Z" stroke="#263238" stroke-miterlimit="10"></path> <path d="M918.703 619.977L951.641 618.071" stroke="#263238" stroke-miterlimit="10"></path> <path d="M922.641 642.349L955.345 639.774" stroke="#263238" stroke-miterlimit="10"></path> <path d="M926.891 660.841L954.579 656.761" stroke="#263238" stroke-miterlimit="10"></path> <path d="M717.987 709.496C717.987 709.496 727.417 701.504 717.251 696.421C707.085 691.339 620.543 698.595 605.26 703.678C589.978 708.761 584.896 722.605 585.631 736.416C586.367 750.226 598.004 761.128 616.162 762.599C634.32 764.071 706.45 751.698 716.482 746.581C726.514 741.465 717.987 709.496 717.987 709.496Z" fill="white"></path> <g style="mix-blend-mode:multiply"> <path d="M718.967 744.474C720.075 742.838 720.806 740.976 721.108 739.024L694.356 743.505C694.356 739.726 694.356 735.947 694.824 732.235L721.576 728.39C721.576 726.718 721.241 725.046 721.041 723.407L695.426 727.086C695.981 722.756 696.91 718.482 698.201 714.311L719.001 712.472C718.6 710.633 718.299 709.496 718.299 709.496C719.042 708.844 719.714 708.115 720.305 707.323L700.241 709.095C702.424 703.684 705.862 698.87 710.273 695.05C708.267 695.05 705.892 694.782 703.318 694.749C699.455 699.09 696.459 704.13 694.489 709.596L667.37 711.971C669.262 706.29 671.645 700.785 674.492 695.518L668.674 695.886C665.969 701.257 663.731 706.851 661.986 712.606L632.492 715.214C633.398 709.67 634.728 704.203 636.471 698.862L631.02 699.498C629.421 704.787 628.203 710.185 627.375 715.649L605.171 717.622C606.868 712.263 609.144 707.105 611.959 702.24C609.801 702.608 607.668 703.11 605.572 703.744C603.219 708.305 601.294 713.074 599.821 717.99L588.551 718.96C587.842 720.641 587.261 722.374 586.812 724.143L598.45 723.106C597.127 729.051 596.687 735.158 597.146 741.231L586.913 742.735C587.437 744.386 588.132 745.978 588.986 747.484L597.747 746.213C598.498 750.525 599.721 754.742 601.392 758.787C604.996 760.458 608.827 761.585 612.762 762.131L627.342 759.723C627.342 760.592 627.609 761.462 627.743 762.331L632.726 761.93L632.023 759.088L659.946 754.44C660.28 755.777 660.715 757.148 661.116 758.486L666.132 757.717C665.697 756.346 665.263 754.975 664.928 753.604L688.972 749.591C688.972 750.962 688.972 752.299 689.172 753.637C690.911 753.303 692.516 752.968 694.255 752.6C694.255 751.33 694.255 750.059 694.255 748.755L718.967 744.474ZM603.533 722.605L626.506 720.598C625.886 726.071 625.596 731.576 625.636 737.084L602.061 740.428C601.564 734.454 602.016 728.438 603.399 722.605H603.533ZM606.609 758.118C604.784 754.069 603.459 749.813 602.663 745.444L625.77 742.1C625.77 746.414 626.272 750.627 626.74 754.74L606.609 758.118ZM631.656 753.938C631.187 749.858 630.853 745.712 630.686 741.431L658.04 737.485C658.081 741.466 658.451 745.436 659.143 749.357L631.656 753.938ZM658.14 732.403L630.619 736.382C630.618 730.951 630.931 725.525 631.555 720.13L660.381 717.622C659.139 722.443 658.345 727.369 658.006 732.336L658.14 732.403ZM688.871 744.374L663.858 748.521C663.16 744.647 662.802 740.719 662.788 736.783L689.273 732.971C689.072 736.75 688.871 740.562 688.871 744.374ZM689.808 727.821L663.056 731.7C663.398 726.786 664.204 721.916 665.463 717.154L692.45 714.78C691.247 719.05 690.397 723.412 689.908 727.821H689.808Z" fill="#0083FC"></path> </g> <path d="M717.987 709.496C717.987 709.496 727.417 701.504 717.251 696.421C707.085 691.339 620.543 698.595 605.26 703.678C589.978 708.761 584.896 722.605 585.631 736.416C586.367 750.226 598.004 761.128 616.162 762.599C634.32 764.071 706.45 751.698 716.482 746.581C726.514 741.465 717.987 709.496 717.987 709.496Z" stroke="#263238" stroke-miterlimit="10"></path> <path d="M737.627 702.976L739.065 734.944L717.262 738.589C713.734 733.867 711.828 728.131 711.828 722.237C711.828 716.343 713.734 710.607 717.262 705.885L737.627 702.976Z" fill="white" stroke="#263238" stroke-miterlimit="10"></path> <path d="M737.625 702.975C737.625 702.975 759.428 650.608 764.377 650.608C769.326 650.608 797.115 643.92 801.462 646.261C805.809 648.602 802.198 660.808 802.198 660.808C804.821 664.434 807.063 668.323 808.886 672.411C810.323 676.792 805.241 683.346 805.241 683.346C806.658 687.099 807.634 691.005 808.15 694.983C808.15 698.595 806.678 700.066 806.678 702.24C806.678 704.413 810.323 712.272 805.241 716.05C800.872 719.664 795.578 721.981 789.959 722.738H781.966C781.966 722.738 766.684 731.466 759.428 732.169C752.171 732.871 739.063 735.078 739.063 735.078L737.625 702.975Z" fill="white"></path> <g style="mix-blend-mode:multiply" opacity="0.5"> <path d="M781.96 722.605H789.952C795.571 721.848 800.866 719.531 805.234 715.917C806.381 714.94 807.227 713.658 807.677 712.221C808.127 710.783 808.161 709.247 807.776 707.791C803.197 710.7 798.117 712.73 792.795 713.777C781.392 715.85 768.985 716.887 758.619 722.036C751.92 725.696 745.564 729.949 739.625 734.744C742.233 734.309 753.001 732.537 759.422 731.901C766.678 731.333 781.96 722.605 781.96 722.605Z" fill="#0083FC"></path> </g> <path d="M737.625 702.975C737.625 702.975 759.428 650.608 764.377 650.608C769.326 650.608 797.115 643.92 801.462 646.261C805.809 648.602 802.198 660.808 802.198 660.808C804.821 664.434 807.063 668.323 808.886 672.411C810.323 676.792 805.241 683.346 805.241 683.346C806.658 687.099 807.634 691.005 808.15 694.983C808.15 698.595 806.678 700.066 806.678 702.24C806.678 704.413 810.323 712.272 805.241 716.05C800.872 719.664 795.578 721.981 789.959 722.738H781.966C781.966 722.738 766.684 731.466 759.428 732.169C752.171 732.871 739.063 735.078 739.063 735.078L737.625 702.975Z" stroke="#263238" stroke-miterlimit="10"></path> <path d="M802.33 660.808L770.328 668.8" stroke="#263238" stroke-miterlimit="10"></path> <path d="M805.237 683.346L773.234 690.603" stroke="#263238" stroke-miterlimit="10"></path> <path d="M806.668 702.24L779.047 706.587" stroke="#263238" stroke-miterlimit="10"></path> </svg> 