<?xml version="1.0" encoding="UTF-8"?> <svg xmlns="http://www.w3.org/2000/svg" width="148" height="145" viewBox="0 0 148 145" fill="none"> <path d="M107.699 2.24221C108.779 1.26992 110.472 2.24746 110.17 3.6688L99.8694 52.1295C99.464 54.0364 100.333 55.9875 102.021 56.9622L144.927 81.7339C146.185 82.4604 145.779 84.3728 144.334 84.5247L95.0617 89.7034C93.1228 89.9072 91.5357 91.3362 91.1304 93.2431L80.8298 141.704C80.5277 143.125 78.5832 143.33 77.9922 142.002L57.8411 96.742C57.0482 94.961 55.1986 93.8932 53.2598 94.097L3.98786 99.2756C2.54274 99.4275 1.74751 97.6415 2.82737 96.6691L39.6453 63.5182C41.094 62.2137 41.538 60.1247 40.7451 58.3437L20.594 13.0836C20.003 11.7562 21.4559 10.4479 22.7143 11.1745L65.6201 35.9461C67.3085 36.9209 69.4324 36.6977 70.8812 35.3932L107.699 2.24221Z" stroke="#0083FC" stroke-width="3"></path> </svg> 