<?xml version="1.0" encoding="UTF-8"?> <svg xmlns="http://www.w3.org/2000/svg" width="146" height="146" viewBox="0 0 146 146" fill="none"> <path d="M106.358 7.50887C107.444 6.39194 109.302 7.46465 108.877 8.96316L97.6206 48.6939C96.8561 51.3922 98.7192 54.1249 101.51 54.399L142.607 58.4357C144.157 58.5879 144.477 60.7094 143.041 61.3117L104.959 77.2826C102.373 78.3672 101.398 81.5276 102.924 83.8807L125.392 118.528C126.239 119.835 124.78 121.408 123.413 120.66L87.1836 100.845C84.7231 99.4993 81.6443 100.708 80.756 103.368L67.6756 142.536C67.1823 144.013 65.0428 143.853 64.7752 142.319L57.6787 101.638C57.1967 98.8755 54.3324 97.2218 51.6988 98.1858L12.9204 112.38C11.4578 112.916 10.2492 111.143 11.2819 109.977L38.6624 79.065C40.522 76.9656 40.029 73.6952 37.6333 72.2372L2.35775 50.769C1.02729 49.9593 1.65966 47.9092 3.21507 47.9897L44.4545 50.1233C47.2553 50.2682 49.5049 47.8437 49.1511 45.0616L43.9416 4.09689C43.7451 2.55186 45.7423 1.76803 46.6491 3.03428L70.6934 36.6069C72.3263 38.887 75.6245 39.1341 77.579 37.1229L106.358 7.50887Z" stroke="#0083FC" stroke-width="3"></path> </svg> 